<?xml version="1.0" encoding="utf-8"?>
<!-- Generator: Adobe Illustrator 22.0.1, SVG Export Plug-In . SVG Version: 6.00 Build 0)  -->
<svg version="1.1" id="Calque_1" xmlns="http://www.w3.org/2000/svg" xmlns:xlink="http://www.w3.org/1999/xlink" x="0px" y="0px"
	 viewBox="0 0 20.1 28.7" style="enable-background:new 0 0 20.1 28.7;" xml:space="preserve">
<style type="text/css">
	.st0{fill:#FFFFFF;}
</style>
<g>
	<g>
		<circle class="st0" cx="10" cy="2.9" r="2.9"/>
		<path class="st0" d="M20.1,15.8v-2.9c-2.2,0-4.4-1.1-5.8-2.6l-1.9-2.1c-0.2-0.3-0.5-0.5-0.9-0.6c0,0,0,0,0,0h0
			C11,7.3,10.4,7.1,9.8,7.2c-1.5,0.1-2.6,1.5-2.6,3v8.5c0,1.6,1.3,2.9,2.9,2.9h7.2v7.2h2.9v-7.9c0-1.6-1.3-2.9-2.9-2.9h-4.3V13
			C14.8,14.5,17.6,15.8,20.1,15.8z M11.2,22.9c-0.6,1.7-2.2,2.9-4.1,2.9c-2.4,0-4.3-1.9-4.3-4.3c0-1.9,1.2-3.5,2.9-4.1v-3
			C2.5,15.1,0,18,0,21.5c0,4,3.2,7.2,7.2,7.2c3.5,0,6.4-2.5,7-5.7H11.2z"/>
	</g>
</g>
</svg>
