<?xml version="1.0" encoding="utf-8"?>
<!-- Generator: Adobe Illustrator 22.0.1, SVG Export Plug-In . SVG Version: 6.00 Build 0)  -->
<svg version="1.1" id="Calque_1" xmlns="http://www.w3.org/2000/svg" xmlns:xlink="http://www.w3.org/1999/xlink" x="0px" y="0px"
	 viewBox="0 0 21.4 21.4" style="enable-background:new 0 0 21.4 21.4;" xml:space="preserve">
<style type="text/css">
	.st0{fill:#FFFFFF;}
</style>
<g>
	<path class="st0" d="M9.9,9.9c-0.4,0.4-0.4,1.1,0,1.5c0.4,0.4,1.1,0.4,1.5,0c0.4-0.4,0.4-1.1,0-1.5C11,9.5,10.3,9.5,9.9,9.9z"/>
	<path class="st0" d="M18.6,10.4h2.8C21.2,4.8,16.8,0.3,11.3,0v3h-0.7V0C4.9,0,0.2,4.6,0,10.4h3V11H0c0.2,5.6,4.7,10.2,10.3,10.3v-3
		H11v3c5.6-0.2,10.2-4.7,10.3-10.3h-2.8V10.4z M14.8,7.3l-1.6,4.1c0,0,0,0,0,0c0,0.1-0.1,0.2-0.1,0.4l0,0l0,0
		c-0.1,0.1-0.1,0.2-0.2,0.3c-0.1,0.1-0.2,0.2-0.3,0.3c-0.1,0.1-0.2,0.2-0.3,0.3C12.1,12.9,12,13,11.9,13l0,0l0,0
		c-0.1,0.1-0.3,0.1-0.4,0.2c0,0,0,0,0,0l-4,1.7c-0.5,0.2-1.1-0.3-0.9-0.9l1.6-4.1c0,0,0,0,0,0c0-0.1,0.1-0.2,0.1-0.4l0,0l0,0l0,0
		c0.1-0.1,0.1-0.2,0.2-0.3c0.1-0.1,0.2-0.2,0.3-0.3C8.9,8.7,9,8.6,9.1,8.5c0.1-0.1,0.2-0.1,0.3-0.2l0,0l0,0c0.1-0.1,0.3-0.1,0.4-0.2
		c0,0,0,0,0,0l4-1.7C14.4,6.3,15,6.8,14.8,7.3z"/>
</g>
</svg>
