<?xml version="1.0" encoding="utf-8"?>
<!-- Generator: Adobe Illustrator 22.0.1, SVG Export Plug-In . SVG Version: 6.00 Build 0)  -->
<svg version="1.1" id="Calque_1" xmlns="http://www.w3.org/2000/svg" xmlns:xlink="http://www.w3.org/1999/xlink" x="0px" y="0px"
	 viewBox="0 0 105.1 19.9" style="enable-background:new 0 0 105.1 19.9;" xml:space="preserve">
<style type="text/css">
	.st0{fill:#FFFFFF;}
</style>
<g>
	<path class="st0" d="M105.1,19.9H0c0,0,0,0,0,0V0h105.1V19.9z M104.2,0.8H0.8v18.3h103.4V0.8z"/>
	<g>
		<path class="st0" d="M13.6,13.4l-0.1-0.7h0c-0.3,0.4-0.9,0.8-1.7,0.8c-1.1,0-1.7-0.8-1.7-1.6c0-1.4,1.2-2.1,3.4-2.1V9.7
			c0-0.5-0.1-1.3-1.3-1.3c-0.5,0-1.1,0.2-1.5,0.4l-0.2-0.7c0.5-0.3,1.1-0.5,1.8-0.5c1.7,0,2.1,1.2,2.1,2.3V12c0,0.5,0,1,0.1,1.3
			H13.6z M13.5,10.5c-1.1,0-2.4,0.2-2.4,1.3c0,0.7,0.4,1,1,1c0.7,0,1.2-0.5,1.4-0.9c0-0.1,0.1-0.2,0.1-0.3V10.5z"/>
		<path class="st0" d="M20.9,5.1v6.8c0,0.5,0,1.1,0,1.4h-0.9l0-1h0c-0.3,0.6-1,1.1-1.9,1.1c-1.4,0-2.4-1.1-2.4-2.8
			c0-1.9,1.1-3,2.5-3c0.9,0,1.4,0.4,1.7,0.9h0V5.1H20.9z M19.9,10c0-0.1,0-0.3,0-0.4c-0.2-0.6-0.7-1.2-1.5-1.2
			c-1.1,0-1.7,0.9-1.7,2.2c0,1.1,0.6,2.1,1.7,2.1c0.7,0,1.3-0.5,1.5-1.2c0-0.1,0-0.3,0-0.4V10z"/>
		<path class="st0" d="M27.5,5.1v6.8c0,0.5,0,1.1,0,1.4h-0.9l0-1h0c-0.3,0.6-1,1.1-1.9,1.1c-1.4,0-2.4-1.1-2.4-2.8
			c0-1.9,1.1-3,2.5-3c0.9,0,1.4,0.4,1.7,0.9h0V5.1H27.5z M26.5,10c0-0.1,0-0.3,0-0.4c-0.2-0.6-0.7-1.2-1.5-1.2
			c-1.1,0-1.7,0.9-1.7,2.2c0,1.1,0.6,2.1,1.7,2.1c0.7,0,1.3-0.5,1.5-1.2c0-0.1,0-0.3,0-0.4V10z"/>
		<path class="st0" d="M30.3,6.2c0,0.3-0.2,0.6-0.6,0.6c-0.4,0-0.6-0.3-0.6-0.6c0-0.4,0.3-0.6,0.6-0.6C30.1,5.5,30.3,5.8,30.3,6.2z
			 M29.2,13.4V7.8h1v5.6H29.2z"/>
		<path class="st0" d="M33.1,6.1v1.6h1.5v0.8h-1.5v3c0,0.7,0.2,1.1,0.8,1.1c0.3,0,0.5,0,0.6-0.1l0,0.8c-0.2,0.1-0.5,0.1-0.9,0.1
			c-0.5,0-0.9-0.2-1.1-0.4c-0.3-0.3-0.4-0.8-0.4-1.5V8.5h-0.9V7.8h0.9V6.4L33.1,6.1z"/>
		<path class="st0" d="M36.8,6.2c0,0.3-0.2,0.6-0.6,0.6c-0.4,0-0.6-0.3-0.6-0.6c0-0.4,0.3-0.6,0.6-0.6C36.6,5.5,36.8,5.8,36.8,6.2z
			 M35.7,13.4V7.8h1v5.6H35.7z"/>
		<path class="st0" d="M43.5,10.5c0,2.1-1.4,3-2.8,3c-1.5,0-2.7-1.1-2.7-2.9c0-1.9,1.2-3,2.8-3C42.4,7.6,43.5,8.8,43.5,10.5z
			 M39,10.6c0,1.2,0.7,2.2,1.7,2.2c1,0,1.7-0.9,1.7-2.2c0-0.9-0.5-2.2-1.7-2.2C39.6,8.4,39,9.5,39,10.6z"/>
		<path class="st0" d="M44.8,9.3c0-0.6,0-1.1,0-1.5h0.9l0.1,0.9h0c0.3-0.5,0.9-1.1,1.9-1.1c0.8,0,2,0.5,2,2.4v3.3h-1v-3.2
			c0-0.9-0.3-1.7-1.3-1.7c-0.7,0-1.2,0.5-1.4,1c0,0.1-0.1,0.3-0.1,0.5v3.4h-1V9.3z"/>
		<path class="st0" d="M54.3,13.4l-0.1-0.7h0c-0.3,0.4-0.9,0.8-1.7,0.8c-1.1,0-1.7-0.8-1.7-1.6c0-1.4,1.2-2.1,3.4-2.1V9.7
			c0-0.5-0.1-1.3-1.3-1.3c-0.5,0-1.1,0.2-1.5,0.4l-0.2-0.7c0.5-0.3,1.1-0.5,1.8-0.5c1.7,0,2.1,1.2,2.1,2.3V12c0,0.5,0,1,0.1,1.3
			H54.3z M54.2,10.5c-1.1,0-2.4,0.2-2.4,1.3c0,0.7,0.4,1,1,1c0.7,0,1.2-0.5,1.4-0.9c0-0.1,0.1-0.2,0.1-0.3V10.5z"/>
		<path class="st0" d="M56.8,5.1h1v8.2h-1V5.1z"/>
		<path class="st0" d="M66,13.2c-0.3,0.1-0.9,0.3-1.6,0.3c-1.7,0-2.8-1.1-2.8-2.9c0-1.7,1.2-3,3-3c0.6,0,1.1,0.2,1.4,0.3l-0.2,0.8
			c-0.2-0.1-0.6-0.3-1.2-0.3c-1.3,0-2,0.9-2,2.1c0,1.3,0.8,2.1,1.9,2.1c0.6,0,1-0.2,1.3-0.3L66,13.2z"/>
		<path class="st0" d="M67.2,5.1h1v3.5h0c0.2-0.3,0.4-0.5,0.7-0.7c0.3-0.2,0.7-0.3,1-0.3c0.8,0,2,0.5,2,2.4v3.3h-1v-3.2
			c0-0.9-0.3-1.7-1.3-1.7c-0.7,0-1.2,0.5-1.4,1c-0.1,0.1-0.1,0.3-0.1,0.5v3.4h-1V5.1z"/>
		<path class="st0" d="M76.7,13.4l-0.1-0.7h0c-0.3,0.4-0.9,0.8-1.7,0.8c-1.1,0-1.7-0.8-1.7-1.6c0-1.4,1.2-2.1,3.4-2.1V9.7
			c0-0.5-0.1-1.3-1.3-1.3c-0.5,0-1.1,0.2-1.5,0.4l-0.2-0.7c0.5-0.3,1.1-0.5,1.8-0.5c1.7,0,2.1,1.2,2.1,2.3V12c0,0.5,0,1,0.1,1.3
			H76.7z M76.5,10.5c-1.1,0-2.4,0.2-2.4,1.3c0,0.7,0.4,1,1,1c0.7,0,1.2-0.5,1.4-0.9c0-0.1,0.1-0.2,0.1-0.3V10.5z"/>
		<path class="st0" d="M79.2,9.5c0-0.7,0-1.2,0-1.7H80l0,1.1h0c0.3-0.8,0.9-1.2,1.6-1.2c0.1,0,0.2,0,0.3,0v1c-0.1,0-0.2,0-0.3,0
			c-0.7,0-1.2,0.5-1.4,1.3c0,0.1,0,0.3,0,0.5v3h-1V9.5z"/>
		<path class="st0" d="M87.7,7.8c0,0.4,0,0.9,0,1.5v3.3c0,1.3-0.3,2.1-0.8,2.6c-0.5,0.5-1.3,0.7-2,0.7c-0.7,0-1.4-0.2-1.9-0.5
			l0.3-0.8c0.4,0.2,0.9,0.4,1.6,0.4c1,0,1.8-0.5,1.8-2v-0.6h0c-0.3,0.5-0.9,0.9-1.8,0.9c-1.4,0-2.4-1.2-2.4-2.7c0-1.9,1.2-3,2.5-3
			c1,0,1.5,0.5,1.7,1h0l0-0.8H87.7z M86.6,10c0-0.2,0-0.3-0.1-0.5c-0.2-0.6-0.7-1.1-1.4-1.1c-1,0-1.7,0.8-1.7,2.1c0,1.1,0.6,2,1.7,2
			c0.6,0,1.2-0.4,1.4-1c0.1-0.2,0.1-0.4,0.1-0.5V10z"/>
		<path class="st0" d="M89.9,10.7c0,1.4,0.9,1.9,1.9,1.9c0.7,0,1.2-0.1,1.6-0.3l0.2,0.7c-0.4,0.2-1,0.3-1.9,0.3
			c-1.7,0-2.8-1.1-2.8-2.8c0-1.7,1-3,2.6-3c1.8,0,2.3,1.6,2.3,2.6c0,0.2,0,0.4,0,0.5H89.9z M92.9,10c0-0.6-0.3-1.7-1.4-1.7
			c-1,0-1.5,0.9-1.6,1.7H92.9z"/>
	</g>
</g>
</svg>
