<?xml version="1.0" encoding="utf-8"?>
<!-- Generator: Adobe Illustrator 22.0.1, SVG Export Plug-In . SVG Version: 6.00 Build 0)  -->
<svg version="1.1" id="Calque_1" xmlns="http://www.w3.org/2000/svg" xmlns:xlink="http://www.w3.org/1999/xlink" x="0px" y="0px"
	 viewBox="0 0 23.4 11.1" style="enable-background:new 0 0 23.4 11.1;" xml:space="preserve">
<style type="text/css">
	.st0{fill:#FFFFFF;}
</style>
<g>
	<g>
		<path class="st0" d="M21.1,8.8c-1.6,0-3.3-0.5-4.7-1.5c-2.9,2-6.5,2-9.4,0C5.6,8.2,4,8.8,2.3,8.8H0v2.3h2.3C4,11.1,5.5,10.7,7,10
			c2.9,1.5,6.4,1.5,9.4,0c1.5,0.8,3.1,1.2,4.7,1.2h2.3V8.8H21.1z"/>
		<path class="st0" d="M21.1,5.3c-1.7,0-3.4-0.7-4.7-1.9c-1.4,1.2-3,1.9-4.7,1.9S8.4,4.6,7,3.4C5.6,4.6,4,5.3,2.3,5.3L2.3,2.9h0.1
			c1.3,0,2.7-0.7,3.8-1.9L7,0l0.9,1c1.1,1.2,2.5,1.9,3.8,1.9s2.7-0.7,3.8-1.9l0.9-1l0.9,1c1.1,1.2,2.5,1.9,3.8,1.9L21.1,5.3z"/>
	</g>
</g>
</svg>
