<?xml version="1.0" encoding="utf-8"?>
<!-- Generator: Adobe Illustrator 22.0.1, SVG Export Plug-In . SVG Version: 6.00 Build 0)  -->
<svg version="1.1" id="Calque_1" xmlns="http://www.w3.org/2000/svg" xmlns:xlink="http://www.w3.org/1999/xlink" x="0px" y="0px"
	 viewBox="0 0 18.5 18.5" style="enable-background:new 0 0 18.5 18.5;" xml:space="preserve">
<style type="text/css">
	.st0{fill:#48AAB7;}
</style>
<g>
	<path class="st0" d="M18,0.4c-0.6-0.6-1.5-0.6-2.1,0L0.4,15.9c-0.6,0.6-0.6,1.5,0,2.1c0.3,0.3,0.7,0.4,1.1,0.4s0.8-0.1,1.1-0.4
		L18,2.6C18.6,2,18.6,1,18,0.4z"/>
	<g>
		<path class="st0" d="M6.4,8.5l2.1-2.1l-6-6C2-0.1,1-0.1,0.4,0.4C-0.1,1-0.1,2,0.4,2.6L6.4,8.5z"/>
		<path class="st0" d="M12.1,9.9l-2.1,2.1l6,6c0.3,0.3,0.7,0.4,1.1,0.4s0.8-0.1,1.1-0.4c0.6-0.6,0.6-1.5,0-2.1L12.1,9.9z"/>
	</g>
</g>
</svg>
