<?xml version="1.0" encoding="utf-8"?>
<!-- Generator: Adobe Illustrator 22.0.1, SVG Export Plug-In . SVG Version: 6.00 Build 0)  -->
<svg version="1.1" id="Calque_1" xmlns="http://www.w3.org/2000/svg" xmlns:xlink="http://www.w3.org/1999/xlink" x="0px" y="0px"
	 viewBox="0 0 28.5 28.5" style="enable-background:new 0 0 28.5 28.5;" xml:space="preserve">
<style type="text/css">
	.st0{fill:#FFFFFF;}
</style>
<g>
	<path class="st0" d="M13.2,13.3c-0.6,0.6-0.5,1.5,0,2.1c0.6,0.6,1.5,0.5,2.1,0c0.6-0.6,0.5-1.5,0-2.1
		C14.7,12.7,13.8,12.7,13.2,13.3z"/>
	<path class="st0" d="M24.8,13.8h3.7C28.3,6.4,22.4,0.5,15.1,0v4.1h-0.9V0C6.5,0,0.2,6.2,0,13.8h4.1v0.9H0
		c0.2,7.5,6.3,13.6,13.8,13.8v-4.1h0.9v4.1c7.5-0.2,13.6-6.3,13.8-13.8h-3.7V13.8z M19.7,9.8l-2.1,5.5c0,0,0,0,0,0
		c0,0.2-0.1,0.3-0.2,0.5l0,0.1l0,0c-0.1,0.2-0.2,0.3-0.3,0.5c-0.1,0.2-0.2,0.3-0.4,0.5c-0.1,0.1-0.3,0.3-0.5,0.4
		c-0.1,0.1-0.3,0.2-0.5,0.3l0,0l0,0c-0.2,0.1-0.3,0.2-0.5,0.2c0,0,0,0,0,0L10,19.9c-0.7,0.3-1.5-0.4-1.2-1.1l2.1-5.5c0,0,0,0,0,0
		c0-0.2,0.1-0.3,0.2-0.5l0,0l0-0.1l0,0c0.1-0.2,0.2-0.3,0.3-0.5c0.1-0.2,0.2-0.3,0.4-0.5c0.1-0.1,0.3-0.3,0.5-0.4
		c0.1-0.1,0.3-0.2,0.5-0.3l0,0l0,0c0.2-0.1,0.3-0.2,0.5-0.2c0,0,0,0,0,0l5.4-2.2C19.3,8.4,20,9.1,19.7,9.8z"/>
</g>
</svg>
