<?xml version="1.0" encoding="utf-8"?>
<!-- Generator: Adobe Illustrator 22.0.1, SVG Export Plug-In . SVG Version: 6.00 Build 0)  -->
<svg version="1.1" id="Calque_1" xmlns="http://www.w3.org/2000/svg" xmlns:xlink="http://www.w3.org/1999/xlink" x="0px" y="0px"
	 viewBox="0 0 47.5 47.5" style="enable-background:new 0 0 47.5 47.5;" xml:space="preserve">
<style type="text/css">
	.st0{fill:#55A3AE;}
	.st1{fill:#FFFFFF;}
</style>
<g>
	<rect class="st0" width="47.5" height="47.5"/>
	<g id="_x31_cp36x.tif_1_">
		<g>
			<path class="st1" d="M35.1,15.5c0,5.6,0,11.3,0,16.9c0,0.1,0,0.1,0,0.2c-0.1,0.4-0.4,0.8-0.8,0.9c-0.1,0-0.1,0-0.2,0
				c-1.6,0-3.2,0-4.8,0c0,0,0,0,0,0c0-2.4,0-4.8,0-7.3c0-0.1,0-0.1,0.1-0.1c0.8,0,1.5,0,2.3,0c0,0,0,0,0.1,0c0,0,0,0,0,0
				c0-0.1,0-0.2,0-0.3c0-0.3,0.1-0.5,0.1-0.8c0-0.3,0.1-0.5,0.1-0.8c0-0.2,0.1-0.5,0.1-0.7c0-0.1,0-0.1,0-0.2c0,0-0.1,0-0.1,0
				c-0.9,0-1.8,0-2.7,0c-0.1,0-0.1,0-0.1-0.1c0-0.6,0-1.1,0-1.7c0-0.2,0-0.3,0-0.5c0-0.2,0.1-0.4,0.2-0.5c0.1-0.2,0.4-0.3,0.6-0.4
				c0.2-0.1,0.4-0.1,0.6-0.1c0.5,0,1,0,1.4,0c0,0,0,0,0.1,0c0-0.9,0-1.7,0-2.6c-0.2,0-0.3,0-0.4,0c-0.3,0-0.6,0-0.9-0.1
				c-0.3,0-0.5,0-0.8,0c-0.4,0-0.8,0-1.1,0.1c-0.5,0.1-1,0.3-1.4,0.7c-0.5,0.4-0.8,1-1,1.6c-0.1,0.5-0.2,0.9-0.2,1.4
				c0,0.7,0,1.4,0,2c0,0.1,0,0.1-0.1,0.1c-0.8,0-1.6,0-2.3,0c0,0,0,0-0.1,0c0,1,0,1.9,0,2.9c0,0,0.1,0,0.1,0c0.8,0,1.5,0,2.3,0
				c0.1,0,0.1,0,0.1,0.1c0,2.4,0,4.8,0,7.2c0,0,0,0,0,0.1c-3,0-6.1,0-9.1,0c0,0,0,0-0.1,0c-0.3,0-0.6-0.2-0.7-0.4
				c-0.2-0.2-0.2-0.4-0.2-0.7c0-2.9,0-5.7,0-8.6c0-2.7,0-5.5,0-8.2c0-0.1,0-0.2,0-0.2c0.1-0.5,0.5-0.8,1-0.8c5.6,0,11.3,0,16.9,0
				c0.1,0,0.1,0,0.2,0c0.4,0.1,0.8,0.4,0.9,0.8C35.1,15.3,35.1,15.4,35.1,15.5z"/>
		</g>
	</g>
</g>
</svg>
