<?xml version="1.0" encoding="utf-8"?>
<!-- Generator: Adobe Illustrator 22.1.0, SVG Export Plug-In . SVG Version: 6.00 Build 0)  -->
<svg version="1.1" id="Calque_1" xmlns="http://www.w3.org/2000/svg" xmlns:xlink="http://www.w3.org/1999/xlink" x="0px" y="0px"
	 viewBox="0 0 234.162796 205.5507812" style="enable-background:new 0 0 234.162796 205.5507812;" xml:space="preserve">
<style type="text/css">
	.st0{fill:#FFFFFF;}
	.st1{clip-path:url(#SVGID_2_);fill:url(#SVGID_3_);}
	.st2{clip-path:url(#SVGID_5_);fill:url(#SVGID_6_);}
	.st3{clip-path:url(#SVGID_8_);fill:url(#SVGID_9_);}
	.st4{clip-path:url(#SVGID_11_);fill:url(#SVGID_12_);}
	.st5{clip-path:url(#SVGID_14_);fill:url(#SVGID_15_);}
	.st6{clip-path:url(#SVGID_17_);fill:url(#SVGID_18_);}
	.st7{fill:#41B67C;}
	.st8{fill:#104D56;}
	.st9{fill:#2F94A2;}
	.st10{fill:none;}
	.st11{fill:#00A680;}
</style>
<g>
	<path class="st0" d="M8.305542,198.1699219c-0.1990356,0.3505859-0.519043,0.5966797-0.9580078,0.7412109
		c-0.4380493,0.1464844-1.0460205,0.2167969-1.8220215,0.2167969c-0.7600098,0-1.3599854-0.0791016-1.7990112-0.2402344
		c-0.4379883-0.1611328-0.7539673-0.4169922-0.9459839-0.7705078c-0.190979-0.3515625-0.2869873-0.8271484-0.2869873-1.4228516
		c0-0.3603516,0.0499878-0.8701172,0.1519775-1.5283203l0.598999,0.0361328
		c-0.0780029,0.5966797-0.1170044,1.0546875-0.1170044,1.3740234c0,0.4794922,0.072998,0.8486328,0.21698,1.1064453
		c0.1460571,0.2587891,0.3880005,0.4423828,0.7300415,0.5517578c0.3399658,0.1103516,0.8200073,0.1650391,1.4389648,0.1650391
		c0.6430054,0,1.1370239-0.0488281,1.4810181-0.1474609c0.3450317-0.0976562,0.5939941-0.2753906,0.7470093-0.5332031
		c0.1519775-0.2607422,0.2290039-0.6396484,0.2290039-1.1425781l-0.1060181-1.3974609l0.6000366-0.0234375
		c0.0939941,0.6904297,0.1409912,1.2060547,0.1409912,1.5507812C8.6055298,197.3330078,8.5054932,197.8212891,8.305542,198.1699219"
		/>
	<path class="st0" d="M8.0287476,188.9833984l0.5650024,0.0351562c0,0.6035156-0.1560059,1.046875-0.4699707,1.3291016
		c0.3209839,0.7519531,0.4819946,1.4873047,0.4819946,2.2089844c0,0.5244141-0.151001,0.9257812-0.4530029,1.1992188
		c-0.302002,0.2744141-0.7340088,0.4111328-1.2990112,0.4111328c-0.5559692,0-0.9699707-0.1396484-1.2399902-0.4179688
		c-0.2709961-0.2763672-0.4370117-0.7148438-0.5-1.3095703l-0.1989746-1.9980469H4.3617554
		c-0.822998,0-1.2340088,0.3505859-1.2340088,1.0576172c0,0.4775391,0.059021,1.2490234,0.1760254,2.3164062l-0.5650024,0.0341797
		c-0.1640015-0.8623047-0.2459717-1.6181641-0.2459717-2.2695312c0-0.6416016,0.1509399-1.1074219,0.4519653-1.3974609
		c0.302002-0.2890625,0.7739868-0.4355469,1.4169922-0.4355469h3.1500244
		C7.8017578,189.7167969,7.9747925,189.4609375,8.0287476,188.9833984 M8.0057983,192.4619141
		c0-0.5869141-0.1370239-1.2607422-0.4120483-2.0205078H5.4547729l0.2119751,1.9160156
		c0.0390015,0.3837891,0.151001,0.6611328,0.335022,0.8291016s0.4569702,0.2519531,0.8170166,0.2519531
		C7.6097412,193.4384766,8.0057983,193.1123047,8.0057983,192.4619141"/>
	<path class="st0" d="M8.3939819,188.171875L7.7709351,188.125c0.1329956-0.9082031,0.2000122-1.5830078,0.2000122-2.0205078
		c0-0.5097656-0.0880127-0.8857422-0.2650146-1.1298828c-0.1759644-0.2412109-0.4799805-0.3632812-0.9110107-0.3632812
		c-0.242981,0-0.4229736,0.046875-0.5409546,0.140625C6.1369629,184.8466797,6.0439453,185,5.9779663,185.2167969
		c-0.0670166,0.2158203-0.1430054,0.5800781-0.2290039,1.0986328c-0.0859985,0.4873047-0.1719971,0.8564453-0.2590332,1.1113281
		c-0.0859985,0.2548828-0.2290039,0.4570312-0.4289551,0.6035156c-0.1990356,0.1513672-0.4830322,0.2236328-0.8520508,0.2236328
		c-1.1359863,0-1.7049561-0.7158203-1.7049561-2.1494141c0-0.4794922,0.0669556-1.1484375,0.2009888-2.0107422l0.6229858,0.0224609
		c-0.1259766,0.8085938-0.1889648,1.4619141-0.1889648,1.9628906c0,0.4941406,0.0799561,0.8613281,0.2409668,1.1005859
		c0.1610107,0.2382812,0.4060059,0.3583984,0.7349854,0.3583984c0.2350464,0,0.4150391-0.0566406,0.5410156-0.1708984
		c0.125-0.1142578,0.2160034-0.2587891,0.2700195-0.4335938c0.0549927-0.1767578,0.1140137-0.4423828,0.1759644-0.7929688
		c0.0160522-0.1259766,0.0320435-0.2246094,0.0469971-0.2949219c0.0940552-0.5019531,0.1940308-0.8876953,0.3000488-1.1523438
		c0.105957-0.2666016,0.2609863-0.4658203,0.4649658-0.5996094c0.2030029-0.1337891,0.492981-0.2001953,0.8699951-0.2001953
		c0.6340332,0,1.0960083,0.1816406,1.3859863,0.5478516c0.2910156,0.3642578,0.4350586,0.9287109,0.4350586,1.6992188
		C8.6049805,186.5849609,8.5349731,187.2636719,8.3939819,188.171875"/>
	<path class="st0" d="M8.0287476,177.6640625l0.5650024,0.0351562c0,0.6035156-0.1560059,1.046875-0.4699707,1.3291016
		c0.3209839,0.7519531,0.4819946,1.4873047,0.4819946,2.2089844c0,0.5253906-0.151001,0.9257812-0.4530029,1.1992188
		c-0.302002,0.2744141-0.7340088,0.4111328-1.2990112,0.4111328c-0.5559692,0-0.9699707-0.1396484-1.2399902-0.4169922
		c-0.2709961-0.2773438-0.4370117-0.7158203-0.5-1.3095703l-0.1989746-1.9990234H4.3617554
		c-0.822998,0-1.2340088,0.3515625-1.2340088,1.0576172c0,0.4785156,0.059021,1.2490234,0.1760254,2.3173828L2.7387695,182.53125
		c-0.1640015-0.8632812-0.2459717-1.6181641-0.2459717-2.2705078c0-0.640625,0.1509399-1.1064453,0.4519653-1.3974609
		c0.302002-0.2890625,0.7739868-0.4355469,1.4169922-0.4355469h3.1500244
		C7.8017578,178.3974609,7.9747925,178.1416016,8.0287476,177.6640625 M8.0057983,181.1425781
		c0-0.5869141-0.1370239-1.2607422-0.4120483-2.0205078H5.4547729l0.2119751,1.9160156
		c0.0390015,0.3837891,0.151001,0.6611328,0.335022,0.8291016s0.4569702,0.2519531,0.8170166,0.2519531
		C7.6097412,182.1191406,8.0057983,181.7939453,8.0057983,181.1425781"/>
	<path class="st0" d="M2.7867432,172.8388672c0.1959839-0.3037109,0.5109863-0.5214844,0.9459839-0.6533203
		c0.4349976-0.1328125,1.03302-0.2011719,1.7930298-0.2011719c0.7680054,0,1.3709717,0.0859375,1.8099976,0.2539062
		c0.4389648,0.1679688,0.7599487,0.4501953,0.9639893,0.8466797c0.2039795,0.3945312,0.3059692,0.9462891,0.3059692,1.6513672
		c0,0.3671875-0.0390015,0.9951172-0.117981,1.8798828H0.0007324v-0.7050781h2.9260254
		c-0.2890015-0.6025391-0.434021-1.2148438-0.434021-1.8330078C2.4927368,173.5537109,2.5907593,173.140625,2.7867432,172.8388672
		 M7.6947632,173.4130859c-0.1850586-0.2705078-0.4550171-0.453125-0.8120117-0.5527344
		c-0.3560181-0.0957031-0.8320312-0.1455078-1.4280396-0.1455078c-0.5719604,0-1.0239868,0.0429688-1.3569946,0.1289062
		c-0.3339844,0.0869141-0.5789795,0.2333984-0.7359619,0.4394531c-0.1560059,0.2080078-0.2340088,0.4931641-0.2340088,0.8544922
		c0,0.5400391,0.1329956,1.1308594,0.3989868,1.7734375h4.3740234c0.0459595-0.5566406,0.0699463-0.9980469,0.0699463-1.328125
		C7.9707031,174.0742188,7.8787231,173.6845703,7.6947632,173.4130859"/>
	<rect y="169.7158203" class="st0" width="8.4869995" height="0.6923828"/>
	<path class="st0" d="M8.0287476,163.0751953l0.5650024,0.0351562c0,0.6035156-0.1560059,1.046875-0.4699707,1.3291016
		c0.3209839,0.7519531,0.4819946,1.4873047,0.4819946,2.2089844c0,0.5244141-0.151001,0.9257812-0.4530029,1.1992188
		c-0.302002,0.2744141-0.7340088,0.4111328-1.2990112,0.4111328c-0.5559692,0-0.9699707-0.1396484-1.2399902-0.4179688
		c-0.2709961-0.2763672-0.4370117-0.7148438-0.5-1.3095703l-0.1989746-1.9980469H4.3617554
		c-0.822998,0-1.2340088,0.3505859-1.2340088,1.0576172c0,0.4775391,0.059021,1.2490234,0.1760254,2.3164062l-0.5650024,0.0341797
		c-0.1640015-0.8623047-0.2459717-1.6171875-0.2459717-2.2695312c0-0.6416016,0.1509399-1.1074219,0.4519653-1.3974609
		c0.302002-0.2890625,0.7739868-0.4355469,1.4169922-0.4355469h3.1500244
		C7.8017578,163.8085938,7.9747925,163.5527344,8.0287476,163.0751953 M8.0057983,166.5537109
		c0-0.5869141-0.1370239-1.2607422-0.4120483-2.0205078H5.4547729l0.2119751,1.9160156
		c0.0390015,0.3837891,0.151001,0.6611328,0.335022,0.8291016s0.4569702,0.2519531,0.8170166,0.2519531
		C7.6097412,167.5302734,8.0057983,167.2041016,8.0057983,166.5537109"/>
	<path class="st0" d="M2.7572632,158.203125c0.1759644-0.2773438,0.4699707-0.4746094,0.8809814-0.5888672
		c0.4119873-0.1123047,0.9979858-0.1708984,1.7579956-0.1708984h3.0910034v0.7070312H5.4312134
		c-0.6269531,0-1.1009521,0.0341797-1.4219971,0.1064453c-0.3209839,0.0683594-0.5479736,0.2021484-0.6820068,0.3916016
		c-0.1329956,0.1933594-0.1999512,0.4824219-0.1999512,0.8652344c0,0.5478516,0.164978,1.1523438,0.4939575,1.8095703h4.8660278
		v0.6933594H2.6102295v-0.6933594h0.4349976c-0.3690186-0.6660156-0.552002-1.3046875-0.552002-1.9150391
		C2.4932251,158.8828125,2.5802612,158.4804688,2.7572632,158.203125"/>
	<path class="st0" d="M8.305542,155.0410156c-0.1990356,0.3496094-0.519043,0.5957031-0.9580078,0.7402344
		c-0.4380493,0.1464844-1.0460205,0.2167969-1.8220215,0.2167969c-0.7600098,0-1.3599854-0.0791016-1.7990112-0.2402344
		c-0.4379883-0.1601562-0.7539673-0.4169922-0.9459839-0.7695312c-0.190979-0.3525391-0.2869873-0.828125-0.2869873-1.4228516
		c0-0.3603516,0.0499878-0.8701172,0.1519775-1.5283203l0.598999,0.0351562
		c-0.0780029,0.5966797-0.1170044,1.0556641-0.1170044,1.375c0,0.4794922,0.072998,0.8486328,0.21698,1.1064453
		c0.1460571,0.2587891,0.3880005,0.4414062,0.7300415,0.5507812c0.3399658,0.1113281,0.8200073,0.1660156,1.4389648,0.1660156
		c0.6430054,0,1.1370239-0.0488281,1.4810181-0.1484375c0.3450317-0.0966797,0.5939941-0.2753906,0.7470093-0.5332031
		c0.1519775-0.2597656,0.2290039-0.6386719,0.2290039-1.1416016l-0.1060181-1.3974609l0.6000366-0.0244141
		c0.0939941,0.6904297,0.1409912,1.2070312,0.1409912,1.5507812C8.6055298,154.203125,8.5054932,154.6914062,8.305542,155.0410156"
		/>
	<path class="st0" d="M8.0287476,145.8554688L8.59375,145.890625c0,0.6025391-0.1560059,1.046875-0.4699707,1.3291016
		c0.3209839,0.7519531,0.4819946,1.4873047,0.4819946,2.2089844c0,0.5244141-0.151001,0.9257812-0.4530029,1.1992188
		s-0.7340088,0.4101562-1.2990112,0.4101562c-0.5559692,0-0.9699707-0.1386719-1.2399902-0.4169922
		c-0.2709961-0.2763672-0.4370117-0.7148438-0.5-1.3095703l-0.1989746-1.9980469H4.3617554
		c-0.822998,0-1.2340088,0.3505859-1.2340088,1.0576172c0,0.4775391,0.059021,1.2490234,0.1760254,2.3164062l-0.5650024,0.0341797
		c-0.1640015-0.8623047-0.2459717-1.6181641-0.2459717-2.2695312c0-0.6416016,0.1509399-1.1074219,0.4519653-1.3974609
		c0.302002-0.2900391,0.7739868-0.4355469,1.4169922-0.4355469h3.1500244
		C7.8017578,146.5888672,7.9747925,146.3330078,8.0287476,145.8554688 M8.0057983,149.3339844
		c0-0.5869141-0.1370239-1.2607422-0.4120483-2.0205078H5.4547729l0.2119751,1.9160156
		c0.0390015,0.3828125,0.151001,0.6601562,0.335022,0.8291016c0.184021,0.1679688,0.4569702,0.2519531,0.8170166,0.2519531
		C7.6097412,150.3105469,8.0057983,149.984375,8.0057983,149.3339844"/>
	<polygon class="st0" points="48.6747437,144.1132812 48.6747437,171.6074219 46.2607422,171.6074219 46.2607422,158.9101562 
		31.3477173,158.9101562 31.3477173,171.6074219 28.8956909,171.6074219 28.8956909,144.1132812 31.3477173,144.1132812 
		31.3477173,156.7324219 46.2607422,156.7324219 46.2607422,144.1132812 	"/>
	<path class="st0" d="M57.574707,170.9755859c-1.1870117-0.6875-2.0310059-1.7685547-2.5319824-3.2441406
		c-0.5009766-1.4785156-0.7509766-3.4941406-0.7509766-6.0527344c0-2.5058594,0.2699585-4.5039062,0.8099976-5.9931641
		c0.5409546-1.4902344,1.4169922-2.5712891,2.6309814-3.2431641c1.2119751-0.6738281,2.835022-1.0097656,4.8659668-1.0097656
		c2.0310059,0,3.6450195,0.3359375,4.8450317,1.0097656c1.2009888,0.671875,2.0709839,1.7529297,2.6110229,3.2431641
		c0.5409546,1.4892578,0.8109741,3.4873047,0.8109741,5.9931641c0,2.5585938-0.2440186,4.5742188-0.7319946,6.0527344
		c-0.4869995,1.4755859-1.3240356,2.5566406-2.5109863,3.2441406c-1.1870117,0.6835938-2.8619995,1.0273438-5.0240479,1.0273438
		C60.43573,172.0029297,58.7607422,171.6591797,57.574707,170.9755859 M66.2967529,169.1347656
		c0.8309937-0.5146484,1.3979492-1.3525391,1.7019653-2.5126953c0.302002-1.1591797,0.4550171-2.8349609,0.4550171-5.0224609
		c0-2.0830078-0.1780396-3.7050781-0.5339966-4.8662109c-0.3560181-1.1611328-0.9500122-1.984375-1.7810059-2.4716797
		c-0.8300171-0.4873047-2.0109863-0.7324219-3.5400391-0.7324219c-1.5309448,0-2.7099609,0.2373047-3.5409546,0.7109375
		c-0.8300171,0.4755859-1.4240112,1.2929688-1.7800293,2.4541016c-0.355957,1.1601562-0.5339966,2.7949219-0.5339966,4.9052734
		c0,2.1875,0.151001,3.8632812,0.4550171,5.0224609c0.3029785,1.1601562,0.8699951,1.9980469,1.7009888,2.5126953
		s2.0629883,0.7714844,3.6989746,0.7714844C64.2337036,169.90625,65.4667358,169.6494141,66.2967529,169.1347656"/>
	<path class="st0" d="M86.3334961,171.6464844c-1.6620483,0.2646484-2.9940186,0.3964844-3.9960327,0.3964844
		c-1.3720093,0-2.4390259-0.2109375-3.2039795-0.6328125c-0.7650146-0.421875-1.3120117-1.1474609-1.6409912-2.1748047
		c-0.3310547-1.0302734-0.4950562-2.4814453-0.4950562-4.3535156v-10.9580078h-2.9269409v-2.0957031h2.9269409v-6.2099609h2.3730469
		v6.2099609h6.6069946v2.0957031h-6.6069946v9.7724609c0,1.6865234,0.0529785,2.9326172,0.157959,3.7373047
		c0.1060181,0.8056641,0.3829956,1.4169922,0.8309937,1.8398438c0.4490356,0.4228516,1.1730347,0.6337891,2.1760254,0.6337891
		l3.6389771-0.2783203L86.3334961,171.6464844z"/>
	<path class="st0" d="M104.6879272,162.7070312H91.197937c0.026001,2.4794922,0.4679565,4.2919922,1.3249512,5.4394531
		c0.8570557,1.1455078,2.2750244,1.7207031,4.2530518,1.7207031c2.1089478,0,4.5099487-0.1181641,7.1999512-0.3564453
		l0.0790405,1.9394531c-3.0339966,0.3681641-5.2620239,0.5527344-6.6860352,0.5527344
		c-2.1099854,0-3.7769775-0.3027344-5.0039673-0.9101562c-1.2260132-0.6054688-2.1229858-1.6464844-2.6900024-3.125
		c-0.5670166-1.4755859-0.8500366-3.5332031-0.8500366-6.171875c0-6.9091797,2.7160034-10.3642578,8.1490479-10.3642578
		c2.6359863,0,4.5949707,0.7519531,5.8739624,2.2548828c1.2780151,1.5048828,1.9190063,3.8779297,1.9190063,7.1210938
		L104.6879272,162.7070312z M102.3929443,160.7285156c0-2.5839844-0.4220581-4.4365234-1.2660522-5.5576172
		s-2.2149658-1.6806641-4.1139526-1.6806641c-1.9520264,0-3.4089966,0.5800781-4.3710327,1.7412109
		c-0.9630127,1.1591797-1.4309692,2.9912109-1.4049683,5.4970703H102.3929443z"/>
	<rect x="109.8699951" y="143.0449219" class="st0" width="2.3339844" height="28.5615234"/>
	<path class="st0" d="M138.3918457,160.7685547h-8.3869629v10.8398438h-2.4520264v-27.4951172h10.0869751
		c2.901001,0,5.0500488,0.6611328,6.447998,1.9785156c1.3970337,1.3193359,2.0970459,3.3769531,2.0970459,6.1728516
		c0,4.4023438-1.7680054,7.0800781-5.302002,8.0292969l5.6569824,11.3144531h-2.7290039L138.3918457,160.7685547z
		 M130.0048828,158.5917969h7.6349487c4.0090332,0,6.0120239-2.0966797,6.0120239-6.2890625
		c0-2.0576172-0.4879761-3.5722656-1.4630127-4.5498047c-0.9760132-0.9736328-2.492981-1.4628906-4.5490112-1.4628906h-7.6349487
		V158.5917969z"/>
	<path class="st0" d="M167.5849609,170.0644531l-0.1190186,1.8994141c-2.0309448,0-3.5209961-0.5283203-4.4699707-1.5830078
		c-2.5310059,1.0820312-5.0120239,1.6230469-7.4359741,1.6230469c-1.7680054,0-3.1130371-0.5087891-4.0360107-1.5253906
		c-0.9230347-1.0136719-1.3840332-2.4707031-1.3840332-4.3710938c0-1.8701172,0.467041-3.2626953,1.4030151-4.1728516
		s2.4069824-1.4697266,4.4110107-1.6796875l6.7260132-0.6728516v-1.8603516c0-2.7685547-1.1870117-4.1523438-3.5610352-4.1523438
		c-1.6079712,0-4.2069702,0.1962891-7.7929688,0.59375l-0.1190186-1.8994141
		c2.901001-0.5537109,5.4459839-0.8320312,7.6350098-0.8320312c2.1619873,0,3.7319946,0.5087891,4.7080078,1.5253906
		c0.9749756,1.0136719,1.4629517,2.6025391,1.4629517,4.7646484v10.6035156
		C165.117981,169.2998047,165.9759521,169.8798828,167.5849609,170.0644531 M155.875,169.984375
		c1.9789429,0,4.2459717-0.4599609,6.8049927-1.3837891v-7.2001953l-6.4490356,0.7128906
		c-1.2929688,0.1328125-2.2210083,0.5087891-2.7890015,1.1279297c-0.5669556,0.6201172-0.848999,1.5371094-0.848999,2.7490234
		C152.5929565,168.6552734,153.6869507,169.984375,155.875,169.984375"/>
	<path class="st0" d="M183.9813843,152.3222656c0.9359131,0.5947266,1.5949707,1.5820312,1.9788818,2.9677734
		c0.3811035,1.3837891,0.572998,3.3554688,0.572998,5.9130859v10.4042969h-2.3739014v-10.2851562
		c0-2.1083984-0.118042-3.7041016-0.3560791-4.7861328c-0.2369385-1.0810547-0.6789551-1.8466797-1.3259277-2.2949219
		c-0.6450195-0.4472656-1.6149902-0.6728516-2.9060059-0.6728516c-1.8469849,0-3.8770142,0.5546875-6.0930176,1.6621094v16.3769531
		h-2.3339844V151.828125h2.3339844v1.4648438c2.2420044-1.2402344,4.3909912-1.8613281,6.447998-1.8613281
		C181.6932983,151.4316406,183.0443726,151.7294922,183.9813843,152.3222656"/>
	<path class="st0" d="M192.2279663,143.9160156h2.3339844v2.9667969h-2.3339844V143.9160156z M192.2279663,151.8271484h2.3339844
		v19.7802734h-2.3339844V151.8271484z"/>
	<path class="st0" d="M216.6766968,170.0644531l-0.1190186,1.8994141c-2.0310059,0-3.5209961-0.5283203-4.4699707-1.5830078
		c-2.5310059,1.0820312-5.012085,1.6230469-7.4370117,1.6230469c-1.7680664,0-3.1120605-0.5087891-4.0350342-1.5253906
		c-0.9229736-1.0136719-1.3840332-2.4707031-1.3840332-4.3710938c0-1.8701172,0.467041-3.2626953,1.4030762-4.1728516
		c0.9359131-0.9101562,2.4060059-1.4697266,4.4110107-1.6796875l6.7249756-0.6728516v-1.8603516
		c0-2.7685547-1.1860352-4.1523438-3.5600586-4.1523438c-1.6079102,0-4.2069092,0.1962891-7.7929688,0.59375l-0.1190186-1.8994141
		c2.901001-0.5537109,5.4460449-0.8320312,7.6350098-0.8320312c2.1619873,0,3.7320557,0.5087891,4.7080078,1.5253906
		c0.9749756,1.0136719,1.4630127,2.6025391,1.4630127,4.7646484v10.6035156
		C214.2096558,169.2998047,215.067688,169.8798828,216.6766968,170.0644531 M204.9667358,169.984375
		c1.9779053,0,4.2459717-0.4599609,6.8039551-1.3837891v-7.2001953l-6.447998,0.7128906
		c-1.2929688,0.1328125-2.2210693,0.5087891-2.7890625,1.1279297c-0.5668945,0.6201172-0.8499756,1.5371094-0.8499756,2.7490234
		C201.6836548,168.6552734,202.7786255,169.984375,204.9667358,169.984375"/>
	<path class="st0" d="M46.5582886,190.2558594c0.7510376,1.0810547,1.1270142,2.5449219,1.1270142,4.3916016
		c0,2.6103516-0.7119751,4.5019531-2.1359863,5.6757812c-1.4240112,1.1728516-3.5209961,1.7597656-6.289978,1.7597656H28.8953247
		v-27.4931641h9.7709961c2.7160034,0,4.7470093,0.5732422,6.0910034,1.7207031
		c1.3460083,1.1474609,2.0180054,2.8955078,2.0180054,5.2412109c0,3.2197266-1.2130127,5.3417969-3.6390381,6.3691406
		C44.6653442,188.3964844,45.8063354,189.1748047,46.5582886,190.2558594 M42.899292,177.9726562
		c-0.9239502-0.8056641-2.3609619-1.2070312-4.3119507-1.2070312h-7.2390137v10.2451172h7.5949707
		c3.5599976,0,5.3400269-1.7392578,5.3400269-5.2216797C44.2833252,180.0488281,43.8212891,178.7783203,42.899292,177.9726562
		 M43.6703491,198.6416016c1.0149536-0.8447266,1.5219727-2.2158203,1.5219727-4.1132812
		c0-1.8203125-0.5009766-3.1708984-1.5020142-4.0566406c-1.0029907-0.8828125-2.5719604-1.3232422-4.7080078-1.3232422h-7.6339722
		v10.7587891h7.8720093C41.1713257,199.9072266,42.6542969,199.4863281,43.6703491,198.6416016"/>
	<path class="st0" d="M67.8197021,193.1835938H54.3307495c0.026001,2.4785156,0.4679565,4.2910156,1.3249512,5.4394531
		c0.8570557,1.1455078,2.2750244,1.7207031,4.2520142,1.7207031c2.1099854,0,4.5109863-0.1181641,7.2009888-0.3574219
		l0.0780029,1.9394531c-3.032959,0.3691406-5.2609863,0.5527344-6.6849976,0.5527344
		c-2.1099854,0-3.7779541-0.3017578-5.0039673-0.9101562c-1.2260132-0.6054688-2.1229858-1.6464844-2.6900024-3.125
		c-0.5670166-1.4755859-0.8510132-3.5332031-0.8510132-6.1708984c0-6.9091797,2.7160034-10.3652344,8.1500244-10.3652344
		c2.6359863,0,4.5939941,0.7519531,5.8739624,2.2548828c1.2780151,1.5048828,1.9190063,3.8779297,1.9190063,7.1220703
		L67.8197021,193.1835938z M65.5257568,191.2041016c0-2.5839844-0.4220581-4.4365234-1.2660522-5.5576172
		s-2.2149658-1.6796875-4.1139526-1.6796875c-1.9530029,0-3.4089966,0.5791016-4.3710327,1.7402344
		c-0.9630127,1.1601562-1.4309692,2.9912109-1.4049683,5.4970703H65.5257568z"/>
	<rect x="73.0019531" y="173.5214844" class="st0" width="2.3339844" height="28.5615234"/>
	<path class="st0" d="M106.3900757,182.8574219c0.8699951,0.6337891,1.4889526,1.6484375,1.8579712,3.0458984
		c0.3699951,1.3984375,0.5549927,3.3222656,0.5549927,5.7753906v10.4052734h-2.3339844v-10.2861328
		c0-2.0839844-0.1190186-3.6660156-0.3560181-4.7470703c-0.2379761-1.0810547-0.6669922-1.8525391-1.2860107-2.3134766
		c-0.6199951-0.4619141-1.5369873-0.6923828-2.7489624-0.6923828c-2.0840454,0-4.1539917,0.5683594-6.2109985,1.7011719
		c0.4209595,1.3173828,0.6329956,3.3369141,0.6329956,6.0517578v10.2861328h-2.3740234v-10.2070312
		c0-2.1103516-0.1119995-3.7119141-0.3359985-4.8056641c-0.223999-1.0947266-0.6459961-1.8730469-1.2659912-2.3339844
		c-0.6190186-0.4619141-1.5369873-0.6923828-2.7490234-0.6923828c-2.0310059,0-4.0089722,0.5527344-5.93396,1.6621094v16.3769531
		H81.507019v-19.7802734h2.3340454v1.4638672c2.0310059-1.2382812,4.1539917-1.859375,6.3689575-1.859375
		c2.2940063,0,3.9160156,0.6982422,4.8660278,2.0957031c1.0020142-0.6054688,2.1690063-1.1064453,3.5009766-1.5009766
		c1.3309937-0.3974609,2.6960449-0.5947266,4.0939941-0.5947266
		C104.2790527,181.9082031,105.519043,182.2255859,106.3900757,182.8574219"/>
	<path class="st0" d="M130.7177734,200.5400391l-0.1190186,1.8994141c-2.0310059,0-3.5200195-0.5273438-4.4689941-1.5820312
		c-2.5319824,1.0810547-5.0120239,1.6220703-7.4370117,1.6220703c-1.7680054,0-3.1129761-0.5078125-4.0360107-1.5244141
		c-0.9229736-1.0146484-1.3839722-2.4716797-1.3839722-4.3710938c0-1.8710938,0.4680176-3.2636719,1.4039917-4.1738281
		s2.4060059-1.4697266,4.4110107-1.6796875l6.7249756-0.671875v-1.8613281c0-2.7675781-1.1870117-4.1533203-3.5599976-4.1533203
		c-1.6090088,0-4.2069702,0.1982422-7.7929688,0.5947266l-0.1190186-1.8994141
		c2.901001-0.5527344,5.4450073-0.8320312,7.6350098-0.8320312c2.1619873,0,3.7310181,0.5087891,4.7069702,1.5253906
		c0.9750366,1.0146484,1.4639893,2.6025391,1.4639893,4.7646484v10.6035156
		C128.25177,199.7753906,129.1097412,200.3564453,130.7177734,200.5400391 M119.0087891,200.4609375
		c1.9779663,0,4.2459717-0.4599609,6.8039551-1.3847656v-7.2001953l-6.4489746,0.7138672
		c-1.2919922,0.1318359-2.2210083,0.5078125-2.7880249,1.1279297c-0.5669556,0.6181641-0.8499756,1.5361328-0.8499756,2.7490234
		C115.725769,199.1308594,116.8197632,200.4609375,119.0087891,200.4609375"/>
	<path class="st0" d="M149.072998,173.5214844v28.5625h-2.3739624v-1.4638672
		c-2.1099854,1.2392578-4.2200317,1.8583984-6.3289795,1.8583984c-2.4800415,0-4.2600098-0.8037109-5.3410034-2.4121094
		c-1.0810547-1.6083984-1.6220093-3.9970703-1.6220093-7.1621094c0-2.6357422,0.2769775-4.7529297,0.8309937-6.3476562
		s1.4370117-2.7675781,2.6499634-3.5205078c1.2130127-0.7519531,2.8220215-1.1279297,4.8270264-1.1279297
		c1.2659912,0,2.927002,0.1728516,4.9840088,0.5146484v-8.9013672H149.072998z M143.5340576,199.90625
		c0.9489746-0.2880859,2.0039673-0.7099609,3.164978-1.2646484v-14.2011719
		c-2.1890259-0.2910156-3.8240356-0.4355469-4.9050293-0.4355469c-2.1900024,0-3.7259521,0.6669922-4.6090088,1.9980469
		c-0.8829956,1.3320312-1.3249512,3.4746094-1.3249512,6.4277344c0,2.7441406,0.3619995,4.7470703,1.0879517,6.0126953
		c0.7260132,1.2675781,2.0110474,1.9003906,3.8570557,1.9003906
		C141.6750488,200.34375,142.585022,200.1972656,143.5340576,199.90625"/>
	<path class="st0" d="M154.96698,174.3916016h2.3339844v2.9667969H154.96698V174.3916016z M154.96698,182.3037109h2.3339844
		v19.7792969H154.96698V182.3037109z"/>
	<path class="st0" d="M176.0702515,182.7978516c0.9369507,0.5947266,1.5959473,1.5820312,1.9789429,2.9677734
		c0.3810425,1.3847656,0.572998,3.3564453,0.572998,5.9140625v10.4033203h-2.3729858v-10.2851562
		c0-2.1083984-0.117981-3.703125-0.3569946-4.7861328c-0.2369995-1.0810547-0.6790161-1.8466797-1.3250122-2.2949219
		c-0.6459961-0.4462891-1.6149902-0.6728516-2.9069824-0.6728516c-1.8469849,0-3.8770142,0.5546875-6.0930176,1.6621094v16.3769531
		h-2.3330078v-19.7783203h2.3330078v1.4638672c2.2420044-1.2402344,4.3920288-1.8613281,6.4490356-1.8613281
		C173.7822266,181.9072266,175.1332397,182.2050781,176.0702515,182.7978516"/>
	<path class="st0" d="M200.4979858,200.5400391l-0.1190186,1.8994141c-2.0300293,0-3.5200195-0.5273438-4.4689941-1.5820312
		c-2.5319824,1.0810547-5.012085,1.6220703-7.4370117,1.6220703c-1.7680664,0-3.1130371-0.5078125-4.0360107-1.5244141
		c-0.9229736-1.0146484-1.3830566-2.4716797-1.3830566-4.3710938c0-1.8710938,0.467041-3.2636719,1.4030762-4.1738281
		c0.9359131-0.9101562,2.4060059-1.4697266,4.4110107-1.6796875l6.7249756-0.671875v-1.8613281
		c0-2.7675781-1.1870117-4.1533203-3.5600586-4.1533203c-1.6090088,0-4.2069092,0.1982422-7.7929688,0.5947266l-0.1190186-1.8994141
		c2.901001-0.5527344,5.4450684-0.8320312,7.6350098-0.8320312c2.1619873,0,3.7310791,0.5087891,4.7070312,1.5253906
		c0.9749756,1.0146484,1.4639893,2.6025391,1.4639893,4.7646484v10.6035156
		C198.0319214,199.7753906,198.8899536,200.3564453,200.4979858,200.5400391 M188.7890015,200.4609375
		c1.9779053,0,4.2459717-0.4599609,6.8039551-1.3847656v-7.2001953l-6.447998,0.7138672
		c-1.2929688,0.1318359-2.2220459,0.5078125-2.7890625,1.1279297c-0.5668945,0.6181641-0.8499756,1.5361328-0.8499756,2.7490234
		C185.5059204,199.1308594,186.5999146,200.4609375,188.7890015,200.4609375"/>
	<path class="st0" d="M222.8086548,22.8359337c-6.4630127-0.03125-11.3840332-5.0166016-11.3890381-11.4091787
		c-0.0059814-6.2919922,4.9100342-11.7246094,11.947998-11.4140625c5.9110107,0.2617188,10.7529297,4.8613281,10.7949219,11.3945312
		C234.2046509,17.7607384,229.2235718,22.8437462,222.8086548,22.8359337 M222.7616577,20.9775352
		c5.1489258,0.1083984,9.8209229-4.25,9.4969482-10.1044912c-0.2719727-4.9326172-4.0650635-8.7441406-8.8769531-9.0048828
		c-5.9500732-0.3251953-9.822998,4.3105469-10.059082,9.0175781
		C213.0305786,16.7216759,217.6596069,21.0244102,222.7616577,20.9775352"/>
	<path class="st0" d="M228.0907593,8.5302706c-0.5211182,0.1445312-1.0070801,0.2724609-1.4890137,0.4140625
		c-0.2091064,0.0625-0.3280029,0.0205078-0.4510498-0.1835938c-0.2199707-0.3613281-0.4560547-0.7246094-0.7490234-1.0263672
		c-1.013916-1.0390625-2.2719727-1.2216797-3.6119385-0.8632812c-1.5130615,0.4013672-2.3480225,1.4628906-2.6870117,2.9648438
		c-0.342041,1.5107422-0.2940674,2.9951172,0.3430176,4.4160156c0.3739014,0.8339844,1.0439453,1.4306641,1.9119873,1.7138672
		c1.1899414,0.3857412,2.3640137,0.3232412,3.4580078-0.3652344c0.7399902-0.4658203,1.2409668-1.1210938,1.5119629-1.9472656
		c0.0909424-0.2753906,0.1949463-0.3935547,0.5150146-0.2910156c0.467041,0.1513672,0.9520264,0.2412109,1.4620361,0.3652344
		c-0.2930908,1.1269531-0.7830811,2.0986328-1.6719971,2.8798819c-0.8250732,0.7275391-1.7661133,1.1904297-2.8260498,1.2998047
		c-1.8320312,0.1884766-3.5739746-0.0556641-5.0119629-1.390625c-1.1280518-1.0478506-1.6829834-2.343749-1.8480225-3.8535147
		c-0.1800537-1.6523438-0.0910645-3.2558594,0.6920166-4.7587891c0.8380127-1.609375,2.2209473-2.484375,3.9689941-2.7890625
		c0.93396-0.1621094,1.881958-0.1650391,2.822998,0.046875C226.2907104,5.5810518,227.4657593,6.7294893,228.0907593,8.5302706"/>
	<path class="st0" d="M213.2815552,47.489254c0-23.7988281-18.3509521-36.0712891-26.1800537-36.0712891h-70.4729004v120.5117188
		h1.1409912v1.1425781h69.3319092c7.8291016,0,26.1800537-12.2724609,26.1800537-36.0712891
		c0-5.5908203-1.0860596-16.1005859-8.105957-24.7636719C212.3585815,63.2939415,213.2815552,52.3828087,213.2815552,47.489254
		 M118.9095459,73.734375c11.8760376-19.3847694,28.8690186-30.9521523,45.5110474-30.9521523
		c16.0679932,0,26.8079834-0.0087891,41.7059326-14.4345703c1.907959,3.3544922,3.4110107,7.2802734,4.2180176,11.7626953
		c-9.105957,8.9814453-17.8800049,13.5517578-39.4359741,13.5517578c-20.3629761,0-39.5369873,11.4921913-51.9990234,30.9287148
		V73.734375z M204.8984985,26.3583946c-14.4169922,14.1298828-24.2869263,14.1396484-40.4779053,14.1396484
		c-16.5430298,0-33.3330078,10.7763672-45.5110474,29.0048866V56.5790977
		c8.6170044-13.2910156,21.5800171-28.4121094,45.5110474-28.4121094c17.6079102,0,25.5769043-3.9970703,32.2958984-10.4804688
		C199.5704956,19.7675743,202.4645386,22.6669884,204.8984985,26.3583946 M187.1015015,13.7021456
		c1.9990234,0,4.75,0.8994141,7.6750488,2.6835928c-6.2480469,5.8886719-13.8359985,9.4980469-30.355957,9.4980469
		c-23.3030396,0-36.5820312,13.5878906-45.5110474,26.5810547V40.7714806
		c8.8980103-19.8505859,28.6220093-27.0693359,39.75-27.0693359H187.1015015z M145.8515625,13.7021456
		c-9.2439575,3.0527334-19.9649658,9.5878897-26.9420166,21.9912109V13.7021456H145.8515625z M118.9095459,88.9716797
		c11.94104-20.6826172,31.3550415-33.026371,51.9990234-33.026371c21.4130249,0,30.7039185-4.3916016,39.8369751-13.0400391
		c0.1610107,1.4746094,0.2540283,2.9990234,0.2540283,4.5839844c0,2.109375-0.1810303,5.4130859-1.0330811,9.1787109
		c-9.6019287,9.5224648-15.1079102,10.9707069-40.5999146,10.9707069c-24.3519897,0-43.9790039,17.4482422-50.4570312,31.0644531
		V88.9716797z M169.3665771,69.921875c23.507019,0,30.7620239-1.3417969,39.3670044-8.9580116
		c-3.7250977,10.6103554-13.3920898,22.6191444-38.0670166,22.6191444c-21.5709839,0-44.5620117,12.7363281-51.757019,34.140625
		v-10.5117188C118.9095459,96.0888672,140.2165527,69.921875,169.3665771,69.921875 M181.9605103,84.9306641
		c1.0750732,11.0859375,14.9510498,23.9169922,26.9689941,24.9570312c-0.8619385,2.5341797-1.9559326,4.8369141-3.197998,6.9160156
		c-18.8919678-0.3007812-34.7949219-14.2246094-35.4839478-30.9287109c0.1400146-0.0009766,0.2810059-0.0078125,0.4190063-0.0078125
		C174.8305664,85.8671875,178.5675659,85.5253906,181.9605103,84.9306641 M126.423584,107.8984375
		c0.9060059,8.7138672,5.5150146,16.3896484,13.7409668,22.890625h-21.2199707
		C119.1685791,122.0332031,121.9465942,114.3349609,126.423584,107.8984375 M128.5355835,105.0898438
		c2.8300171-3.4511719,6.1679688-6.4765625,9.8529663-9.0517578c0.9550171,13.7314453,10.9680176,27.2568359,25.4960327,34.7509766
		h-19.9089966C133.7315674,123.6005859,128.6765747,115.1865234,128.5355835,105.0898438 M169.3115845,130.7890625
		c-16.677002-6.7070312-28.3619995-21.4970703-28.7120361-36.2177734c3.7540283-2.3564453,7.8099976-4.2646484,12.0209961-5.6845703
		c0.9020386,20.6728516,19.1300049,38.0195312,41.3179932,39.7050781c-2.6099854,1.4589844-5.0300293,2.1972656-6.8370361,2.1972656
		H169.3115845z M197.1854858,126.4501953c-22.6499023-0.1484375-41.7678833-17.5234375-42.3029175-38.2753906
		c4.2869873-1.2548828,8.7000122-2.0117188,13.0859985-2.2324219c0.7059937,17.4755859,16.8439941,32.125,36.30896,33.1044922
		C202.1174927,122.1113281,199.647522,124.5800781,197.1854858,126.4501953 M209.6065063,107.6503906
		c-11.0720215-0.6230469-24.6079102-12.9833984-25.3979492-23.1513672c4.1199951-0.9052734,7.651001-2.2285156,10.6920166-3.8417969
		c0.9759521,8.9833984,8.7349854,15.6025391,16.0969238,16.234375c0,0.0351562,0.0020752,0.0742188,0.0020752,0.109375
		C210.9995728,100.8808594,210.4835815,104.4267578,209.6065063,107.6503906 M210.930603,94.6015625
		c-6.4920654-0.7197266-13.4700928-7.0712891-13.81604-15.2226562c2.5610352-1.6064453,4.7230225-3.4306641,6.5439453-5.3876953
		C209.1334839,80.9394531,210.6265259,89.1298828,210.930603,94.6015625"/>
	<path class="st0" d="M110.0546875,107.6220703c-11.0500488-0.6210938-24.5490112-12.9326172-25.3880005-23.0888672
		c-0.7400513,0.1767578-1.4530029,0.3681641-2.2330322,0.515625c1.1799927,11.0527344,14.9780273,23.7753906,26.9440308,24.8115234
		c-0.8630371,2.5341797-1.9560547,4.8369141-3.197998,6.9160156c-18.8070068-0.2998047-34.6410522-14.1025391-35.4609985-30.7060547
		c-0.967041,0.0048828-1.9360352,0.0507812-2.9070435,0.1064453c0.8430176,17.3720703,16.9100342,31.8945312,36.2869873,32.8701172
		c-2.1599731,3.0634766-4.6300049,5.5322266-7.0910034,7.4023438c-22.5609741-0.1464844-41.6049805-17.3886719-42.2839966-38.03125
		c-0.9779663,0.2832031-1.9439697,0.6132812-2.9089966,0.9462891c0.0230103,0.4521484,2.0200195,36.7060547,45.1690063,39.2949219
		c0,0,17.0880127-6.8671875,16.6780396-32.6220703c0,0-14.7000122-3.5791016-15.6090088-17.2753906
		c-0.0020142-0.0273438-0.0029907-0.0419922-0.0050049-0.0683594c-2.4329834,1.734375-5.2900391,3.2421875-8.6270142,4.4433594
		c2.1519775-0.7236328,4.1359863-1.5576172,5.9279785-2.5068359c0.9770508,8.9833984,9.1589966,16.3310547,16.5209961,16.9638672
		C111.8696289,97.59375,111.1516724,104.2138672,110.0546875,107.6220703"/>
	<path class="st0" d="M50.9882202,87.8994141c3.3140259-3.0517578,22.9390259-3.6035156,22.9390259-3.6035156
		c14.2739868-0.2939453,23.4909668-6.0292969,24.0689697-6.3974609c-0.2739868-4.3496094,0.31604,2.6054688,0.0560303-0.0351562
		c0,0-0.0369873,0.0224609-0.0560303,0.0351562c0.0150146,0.2324219,0.0320435,0.4941406,0.052002,0.7958984
		c2.6150513-1.8642578,4.8080444-3.9423828,6.5390015-6.1621094c7.1820068-8.9433632,7.8950195-20.1494179,7.8950195-25.0429726
		c0-23.7988281-18.3499756-36.0712891-26.1809692-36.0712891H15.8292236v117.6865234l3.4150391-8.9033203
		c5.052002-15.0322266,17.901001-25.7626953,32.5709839-30.8359375c-0.0010376-0.0019531-0.0020142-0.0214844-0.0020142-0.0214844
		S47.6742554,90.9492188,50.9882202,87.8994141 M18.1112671,13.7021456h26.940979
		c-9.2440186,3.0527334-19.9639893,9.5878897-26.940979,21.9912109V13.7021456z M18.1112671,40.7714806
		c8.8969727-19.8515625,28.6209717-27.0693359,39.75-27.0693359h28.4400024c2,0,4.7509766,0.9003906,7.6759644,2.6835928
		c-6.2479858,5.8886719-13.8359985,9.4980469-30.3549805,9.4980469c-23.3049927,0-36.5830078,13.5878906-45.5109863,26.5810547
		V40.7714806z M18.1112671,56.5781212c8.6159668-13.2910156,21.5789795-28.4111328,45.5109863-28.4111328
		c17.6069946,0,25.5759888-3.9970703,32.2959595-10.4804688c2.8530273,2.0820312,5.7470093,4.9804688,8.1800537,8.671875
		C89.682251,40.4882774,79.8122559,40.4980431,63.6222534,40.4980431c-16.5440063,0-33.3340454,10.7763672-45.5109863,29.0048866
		V56.5781212z M18.1112671,73.734375c11.875-19.3837929,28.867981-30.9521523,45.5109863-30.9521523
		c16.0669556,0,26.8070068-0.0087891,41.7050171-14.4345703c1.907959,3.3544922,3.4109497,7.2802734,4.2189941,11.7626953
		C100.43927,49.0917931,91.6652222,53.661129,70.1092529,53.661129c-20.3630371,0-39.5360107,11.4931679-51.9979858,30.9296913
		V73.734375z M18.1112671,88.9716797c11.9389648-20.6835938,31.3539429-33.026371,51.9979858-33.026371
		c21.4129639,0,30.7039795-4.3916016,39.8380127-13.0400391c0.1599731,1.4746094,0.2529907,2.9990234,0.2529907,4.5839844
		c0,2.109375-0.1810303,5.4130859-1.03302,9.1787109C99.56427,66.1904297,94.0592651,67.6376953,68.5672607,67.6376953
		c-24.3520508,0-43.9780273,17.4492188-50.4559937,31.0654297V88.9716797z M18.1112671,117.7236328v-10.5117188
		c0-11.1230469,21.3059692-37.2900391,50.4559937-37.2900391c23.506958,0,30.7630005-1.3427734,39.3670044-8.9580116
		c-3.723999,10.6103554-13.3920288,22.6191444-38.06604,22.6191444
		C48.2962646,83.5830078,25.3042603,96.3193359,18.1112671,117.7236328"/>
	<path class="st0" d="M97.9960938,77.8974609c0.0199585-0.0117188,0.0559692-0.0341797,0.0559692-0.0341797
		C98.3120728,80.5039062,97.7220459,73.5488281,97.9960938,77.8974609"/>
	<path class="st0" d="M97.9960938,77.8974609c0.0199585-0.0117188,0.0559692-0.0341797,0.0559692-0.0341797
		C98.3120728,80.5039062,97.7220459,73.5488281,97.9960938,77.8974609"/>
	<path class="st0" d="M54.7045898,88.1748047c4.2869873-1.2548828,8.6989746-2.0126953,13.0849609-2.2324219
		c0.0029907,0.0791016,0.0189819,0.1552734,0.0220337,0.234375c0.9709473-0.0556641,1.9400024-0.1015625,2.9069824-0.1054688
		c-0.0040283-0.0761719-0.0189819-0.1484375-0.0220337-0.2226562c0.1390381-0.0009766,0.2790527-0.0097656,0.4190063-0.0097656
		c4.1630249,0,7.9000244-0.3427734,11.2940063-0.9345703c0.0040283,0.046875,0.019043,0.0957031,0.0239868,0.1435547
		c0.7800293-0.1455078,1.493042-0.3388672,2.2330322-0.5146484c-0.0020142-0.0185547-0.0079956-0.0410156-0.0100098-0.0605469
		c1.6940308-0.3720703,3.2630005-0.8310547,4.7639771-1.3359375c3.3370361-1.2001953,6.1940308-2.7089844,8.6270142-4.4423828
		c-0.0199585-0.3017578-0.0360107-0.5634766-0.0509644-0.7958984c-0.5780029,0.3681641-9.7950439,6.1035156-24.0690308,6.3974609
		c0,0-19.625,0.5527344-22.9389648,3.6035156c-3.3140259,3.0488281,0.8249512,1.4453125,0.8249512,1.4453125
		s0.0010376,0.0175781,0.0010376,0.0195312c0.9649658-0.3330078,1.9309692-0.6630859,2.9099731-0.9472656
		C54.7215576,88.3349609,54.706543,88.2558594,54.7045898,88.1748047"/>
	<path class="st0" d="M54.7045898,88.1748047c4.2869873-1.2548828,8.6989746-2.0126953,13.0849609-2.2324219
		c0.0029907,0.0791016,0.0189819,0.1552734,0.0220337,0.234375c0.9709473-0.0556641,1.9400024-0.1015625,2.9069824-0.1054688
		c-0.0040283-0.0761719-0.0189819-0.1484375-0.0220337-0.2226562c0.1390381-0.0009766,0.2790527-0.0097656,0.4190063-0.0097656
		c4.1630249,0,7.9000244-0.3427734,11.2940063-0.9345703c0.0040283,0.046875,0.019043,0.0957031,0.0239868,0.1435547
		c0.7800293-0.1455078,1.493042-0.3388672,2.2330322-0.5146484c-0.0020142-0.0185547-0.0079956-0.0410156-0.0100098-0.0605469
		c1.6940308-0.3720703,3.2630005-0.8310547,4.7639771-1.3359375c3.3370361-1.2001953,6.1940308-2.7089844,8.6270142-4.4423828
		c-0.0199585-0.3017578-0.0360107-0.5634766-0.0509644-0.7958984c-0.5780029,0.3681641-9.7950439,6.1035156-24.0690308,6.3974609
		c0,0-19.625,0.5527344-22.9389648,3.6035156c-3.3140259,3.0488281,0.8249512,1.4453125,0.8249512,1.4453125
		s0.0010376,0.0175781,0.0010376,0.0195312c0.9649658-0.3330078,1.9309692-0.6630859,2.9099731-0.9472656
		C54.7215576,88.3349609,54.706543,88.2558594,54.7045898,88.1748047"/>
	<path class="st0" d="M213.2815552,47.489254c0-23.7988281-18.3509521-36.0712891-26.1800537-36.0712891h-70.4729004v120.5117188
		h1.1409912v1.1425781h69.3319092c7.8291016,0,26.1800537-12.2724609,26.1800537-36.0712891
		c0-5.5908203-1.0860596-16.1005859-8.105957-24.7636719C212.3585815,63.2939415,213.2815552,52.3828087,213.2815552,47.489254
		 M118.9095459,73.734375c11.8760376-19.3847694,28.8690186-30.9521523,45.5110474-30.9521523
		c16.0679932,0,26.8079834-0.0087891,41.7059326-14.4345703c1.907959,3.3544922,3.4110107,7.2802734,4.2180176,11.7626953
		c-9.105957,8.9814453-17.8800049,13.5517578-39.4359741,13.5517578c-20.3629761,0-39.5369873,11.4921913-51.9990234,30.9287148
		V73.734375z M204.8984985,26.3583946c-14.4169922,14.1298828-24.2869263,14.1396484-40.4779053,14.1396484
		c-16.5430298,0-33.3330078,10.7763672-45.5110474,29.0048866V56.5790977
		c8.6170044-13.2910156,21.5800171-28.4121094,45.5110474-28.4121094c17.6079102,0,25.5769043-3.9970703,32.2958984-10.4804688
		C199.5704956,19.7675743,202.4645386,22.6669884,204.8984985,26.3583946 M187.1015015,13.7021456
		c1.9990234,0,4.75,0.8994141,7.6750488,2.6835928c-6.2480469,5.8886719-13.8359985,9.4980469-30.355957,9.4980469
		c-23.3030396,0-36.5820312,13.5878906-45.5110474,26.5810547V40.7714806
		c8.8980103-19.8505859,28.6220093-27.0693359,39.75-27.0693359H187.1015015z M145.8515625,13.7021456
		c-9.2439575,3.0527334-19.9649658,9.5878897-26.9420166,21.9912109V13.7021456H145.8515625z M118.9095459,88.9716797
		c11.94104-20.6826172,31.3550415-33.026371,51.9990234-33.026371c21.4130249,0,30.7039185-4.3916016,39.8369751-13.0400391
		c0.1610107,1.4746094,0.2540283,2.9990234,0.2540283,4.5839844c0,2.109375-0.1810303,5.4130859-1.0330811,9.1787109
		c-9.6019287,9.5224648-15.1079102,10.9707069-40.5999146,10.9707069c-24.3519897,0-43.9790039,17.4482422-50.4570312,31.0644531
		V88.9716797z M169.3665771,69.921875c23.507019,0,30.7620239-1.3417969,39.3670044-8.9580116
		c-3.7250977,10.6103554-13.3920898,22.6191444-38.0670166,22.6191444c-21.5709839,0-44.5620117,12.7363281-51.757019,34.140625
		v-10.5117188C118.9095459,96.0888672,140.2165527,69.921875,169.3665771,69.921875 M181.9605103,84.9306641
		c1.0750732,11.0859375,14.9510498,23.9169922,26.9689941,24.9570312c-0.8619385,2.5341797-1.9559326,4.8369141-3.197998,6.9160156
		c-18.8919678-0.3007812-34.7949219-14.2246094-35.4839478-30.9287109c0.1400146-0.0009766,0.2810059-0.0078125,0.4190063-0.0078125
		C174.8305664,85.8671875,178.5675659,85.5253906,181.9605103,84.9306641 M126.423584,107.8984375
		c0.9060059,8.7138672,5.5150146,16.3896484,13.7409668,22.890625h-21.2199707
		C119.1685791,122.0332031,121.9465942,114.3349609,126.423584,107.8984375 M128.5355835,105.0898438
		c2.8300171-3.4511719,6.1679688-6.4765625,9.8529663-9.0517578c0.9550171,13.7314453,10.9680176,27.2568359,25.4960327,34.7509766
		h-19.9089966C133.7315674,123.6005859,128.6765747,115.1865234,128.5355835,105.0898438 M169.3115845,130.7890625
		c-16.677002-6.7070312-28.3619995-21.4970703-28.7120361-36.2177734c3.7540283-2.3564453,7.8099976-4.2646484,12.0209961-5.6845703
		c0.9020386,20.6728516,19.1300049,38.0195312,41.3179932,39.7050781c-2.6099854,1.4589844-5.0300293,2.1972656-6.8370361,2.1972656
		H169.3115845z M197.1854858,126.4501953c-22.6499023-0.1484375-41.7678833-17.5234375-42.3029175-38.2753906
		c4.2869873-1.2548828,8.7000122-2.0117188,13.0859985-2.2324219c0.7059937,17.4755859,16.8439941,32.125,36.30896,33.1044922
		C202.1174927,122.1113281,199.647522,124.5800781,197.1854858,126.4501953 M209.6065063,107.6503906
		c-11.0720215-0.6230469-24.6079102-12.9833984-25.3979492-23.1513672c4.1199951-0.9052734,7.651001-2.2285156,10.6920166-3.8417969
		c0.9759521,8.9833984,8.7349854,15.6025391,16.0969238,16.234375c0,0.0351562,0.0020752,0.0742188,0.0020752,0.109375
		C210.9995728,100.8808594,210.4835815,104.4267578,209.6065063,107.6503906 M210.930603,94.6015625
		c-6.4920654-0.7197266-13.4700928-7.0712891-13.81604-15.2226562c2.5610352-1.6064453,4.7230225-3.4306641,6.5439453-5.3876953
		C209.1334839,80.9394531,210.6265259,89.1298828,210.930603,94.6015625"/>
	<path class="st0" d="M110.0546875,107.6220703c-11.0500488-0.6210938-24.5490112-12.9326172-25.3880005-23.0888672
		c-0.7400513,0.1767578-1.4530029,0.3681641-2.2330322,0.515625c1.1799927,11.0527344,14.9780273,23.7753906,26.9440308,24.8115234
		c-0.8630371,2.5341797-1.9560547,4.8369141-3.197998,6.9160156c-18.8070068-0.2998047-34.6410522-14.1025391-35.4609985-30.7060547
		c-0.967041,0.0048828-1.9360352,0.0507812-2.9070435,0.1064453c0.8430176,17.3720703,16.9100342,31.8945312,36.2869873,32.8701172
		c-2.1599731,3.0634766-4.6300049,5.5322266-7.0910034,7.4023438c-22.5609741-0.1464844-41.6049805-17.3886719-42.2839966-38.03125
		c-0.9779663,0.2832031-1.9439697,0.6132812-2.9089966,0.9462891c0.0230103,0.4521484,2.0200195,36.7060547,45.1690063,39.2949219
		c0,0,17.0880127-6.8671875,16.6780396-32.6220703c0,0-14.7000122-3.5791016-15.6090088-17.2753906
		c-0.0020142-0.0273438-0.0029907-0.0419922-0.0050049-0.0683594c-2.4329834,1.734375-5.2900391,3.2421875-8.6270142,4.4433594
		c2.1519775-0.7236328,4.1359863-1.5576172,5.9279785-2.5068359c0.9770508,8.9833984,9.1589966,16.3310547,16.5209961,16.9638672
		C111.8696289,97.59375,111.1516724,104.2138672,110.0546875,107.6220703"/>
	<path class="st0" d="M50.9882202,87.8994141c3.3140259-3.0517578,22.9390259-3.6035156,22.9390259-3.6035156
		c14.2739868-0.2939453,23.4909668-6.0292969,24.0689697-6.3974609c-0.2739868-4.3496094,0.31604,2.6054688,0.0560303-0.0351562
		c0,0-0.0369873,0.0224609-0.0560303,0.0351562c0.0150146,0.2324219,0.0320435,0.4941406,0.052002,0.7958984
		c2.6150513-1.8642578,4.8080444-3.9423828,6.5390015-6.1621094c7.1820068-8.9433632,7.8950195-20.1494179,7.8950195-25.0429726
		c0-23.7988281-18.3499756-36.0712891-26.1809692-36.0712891H15.8292236v117.6865234l3.4150391-8.9033203
		c5.052002-15.0322266,17.901001-25.7626953,32.5709839-30.8359375c-0.0010376-0.0019531-0.0020142-0.0214844-0.0020142-0.0214844
		S47.6742554,90.9492188,50.9882202,87.8994141 M18.1112671,13.7021456h26.940979
		c-9.2440186,3.0527334-19.9639893,9.5878897-26.940979,21.9912109V13.7021456z M18.1112671,40.7714806
		c8.8969727-19.8515625,28.6209717-27.0693359,39.75-27.0693359h28.4400024c2,0,4.7509766,0.9003906,7.6759644,2.6835928
		c-6.2479858,5.8886719-13.8359985,9.4980469-30.3549805,9.4980469c-23.3049927,0-36.5830078,13.5878906-45.5109863,26.5810547
		V40.7714806z M18.1112671,56.5781212c8.6159668-13.2910156,21.5789795-28.4111328,45.5109863-28.4111328
		c17.6069946,0,25.5759888-3.9970703,32.2959595-10.4804688c2.8530273,2.0820312,5.7470093,4.9804688,8.1800537,8.671875
		C89.682251,40.4882774,79.8122559,40.4980431,63.6222534,40.4980431c-16.5440063,0-33.3340454,10.7763672-45.5109863,29.0048866
		V56.5781212z M18.1112671,73.734375c11.875-19.3837929,28.867981-30.9521523,45.5109863-30.9521523
		c16.0669556,0,26.8070068-0.0087891,41.7050171-14.4345703c1.907959,3.3544922,3.4109497,7.2802734,4.2189941,11.7626953
		C100.43927,49.0917931,91.6652222,53.661129,70.1092529,53.661129c-20.3630371,0-39.5360107,11.4931679-51.9979858,30.9296913
		V73.734375z M18.1112671,88.9716797c11.9389648-20.6835938,31.3539429-33.026371,51.9979858-33.026371
		c21.4129639,0,30.7039795-4.3916016,39.8380127-13.0400391c0.1599731,1.4746094,0.2529907,2.9990234,0.2529907,4.5839844
		c0,2.109375-0.1810303,5.4130859-1.03302,9.1787109C99.56427,66.1904297,94.0592651,67.6376953,68.5672607,67.6376953
		c-24.3520508,0-43.9780273,17.4492188-50.4559937,31.0654297V88.9716797z M18.1112671,117.7236328v-10.5117188
		c0-11.1230469,21.3059692-37.2900391,50.4559937-37.2900391c23.506958,0,30.7630005-1.3427734,39.3670044-8.9580116
		c-3.723999,10.6103554-13.3920288,22.6191444-38.06604,22.6191444
		C48.2962646,83.5830078,25.3042603,96.3193359,18.1112671,117.7236328"/>
	<path class="st0" d="M97.9960938,77.8974609c0.0199585-0.0117188,0.0559692-0.0341797,0.0559692-0.0341797
		C98.3120728,80.5039062,97.7220459,73.5488281,97.9960938,77.8974609"/>
	<path class="st0" d="M97.9960938,77.8974609c0.0199585-0.0117188,0.0559692-0.0341797,0.0559692-0.0341797
		C98.3120728,80.5039062,97.7220459,73.5488281,97.9960938,77.8974609"/>
	<path class="st0" d="M54.7045898,88.1748047c4.2869873-1.2548828,8.6989746-2.0126953,13.0849609-2.2324219
		c0.0029907,0.0791016,0.0189819,0.1552734,0.0220337,0.234375c0.9709473-0.0556641,1.9400024-0.1015625,2.9069824-0.1054688
		c-0.0040283-0.0761719-0.0189819-0.1484375-0.0220337-0.2226562c0.1390381-0.0009766,0.2790527-0.0097656,0.4190063-0.0097656
		c4.1630249,0,7.9000244-0.3427734,11.2940063-0.9345703c0.0040283,0.046875,0.019043,0.0957031,0.0239868,0.1435547
		c0.7800293-0.1455078,1.493042-0.3388672,2.2330322-0.5146484c-0.0020142-0.0185547-0.0079956-0.0410156-0.0100098-0.0605469
		c1.6940308-0.3720703,3.2630005-0.8310547,4.7639771-1.3359375c3.3370361-1.2001953,6.1940308-2.7089844,8.6270142-4.4423828
		c-0.0199585-0.3017578-0.0360107-0.5634766-0.0509644-0.7958984c-0.5780029,0.3681641-9.7950439,6.1035156-24.0690308,6.3974609
		c0,0-19.625,0.5527344-22.9389648,3.6035156c-3.3140259,3.0488281,0.8249512,1.4453125,0.8249512,1.4453125
		s0.0010376,0.0175781,0.0010376,0.0195312c0.9649658-0.3330078,1.9309692-0.6630859,2.9099731-0.9472656
		C54.7215576,88.3349609,54.706543,88.2558594,54.7045898,88.1748047"/>
	<path class="st0" d="M54.7045898,88.1748047c4.2869873-1.2548828,8.6989746-2.0126953,13.0849609-2.2324219
		c0.0029907,0.0791016,0.0189819,0.1552734,0.0220337,0.234375c0.9709473-0.0556641,1.9400024-0.1015625,2.9069824-0.1054688
		c-0.0040283-0.0761719-0.0189819-0.1484375-0.0220337-0.2226562c0.1390381-0.0009766,0.2790527-0.0097656,0.4190063-0.0097656
		c4.1630249,0,7.9000244-0.3427734,11.2940063-0.9345703c0.0040283,0.046875,0.019043,0.0957031,0.0239868,0.1435547
		c0.7800293-0.1455078,1.493042-0.3388672,2.2330322-0.5146484c-0.0020142-0.0185547-0.0079956-0.0410156-0.0100098-0.0605469
		c1.6940308-0.3720703,3.2630005-0.8310547,4.7639771-1.3359375c3.3370361-1.2001953,6.1940308-2.7089844,8.6270142-4.4423828
		c-0.0199585-0.3017578-0.0360107-0.5634766-0.0509644-0.7958984c-0.5780029,0.3681641-9.7950439,6.1035156-24.0690308,6.3974609
		c0,0-19.625,0.5527344-22.9389648,3.6035156c-3.3140259,3.0488281,0.8249512,1.4453125,0.8249512,1.4453125
		s0.0010376,0.0175781,0.0010376,0.0195312c0.9649658-0.3330078,1.9309692-0.6630859,2.9099731-0.9472656
		C54.7215576,88.3349609,54.706543,88.2558594,54.7045898,88.1748047"/>
	<rect x="15.8289795" y="142.1181641" class="st0" width="2.2819824" height="63.4326172"/>
</g>
</svg>
