<?xml version="1.0" encoding="utf-8"?>
<!-- Generator: Adobe Illustrator 22.1.0, SVG Export Plug-In . SVG Version: 6.00 Build 0)  -->
<svg version="1.1" id="Calque_1" xmlns="http://www.w3.org/2000/svg" xmlns:xlink="http://www.w3.org/1999/xlink" x="0px" y="0px"
	 viewBox="0 0 119.4936218 95.2989883" style="enable-background:new 0 0 119.4936218 95.2989883;" xml:space="preserve">
<style type="text/css">
	.st0{fill:#FFFFFF;}
</style>
<g>
	<g>
		<path class="st0" d="M107.3485718,91.4487915c-0.4686279,1.9414444-1.8410263,2.9456406-3.6485825,3.4812088
			c-1.3723984,0.4016876-2.7782669,0.4016876-4.1841431,0.2677841c-0.7364197-0.0669479-1.4393463-0.167366-2.1422882-0.3347321
			c-0.6359863-0.1338882-0.6694641-0.1338882-0.6694641-0.8368301c0-0.234314,0-0.4686203,0-0.736412
			c0-0.5020981,0.0669556-0.5355759,0.5020981-0.3347321c0.7029419,0.3012543,1.4058838,0.569046,2.1422882,0.736412
			c1.0376663,0.234314,2.1088028,0.3682098,3.1799469,0.1338882c1.539772-0.3012543,2.41008-1.3389282,2.4770203-2.9121704
			c0.0334702-1.037674-0.3012619-1.8745041-1.037674-2.5439682c-0.5020981-0.4686203-1.0711441-0.8368301-1.6736603-1.1715622
			c-0.9707184-0.5355682-2.0083923-0.9707184-2.9456329-1.5732422c-0.7364197-0.4686203-1.4393463-0.9372482-1.9414444-1.6736603
			c-1.0711441-1.539772-1.1715622-3.1464767-0.3682098-4.820137c0.3682098-0.7364197,0.970726-1.2385178,1.6736603-1.6401901
			c0.9372482-0.5020981,1.9749222-0.7029343,3.0125885-0.7698746c1.3389282-0.0669556,2.6778564,0.0669479,3.9833069,0.3012543
			c0.1004181,0.0334778,0.2343216,0.0669479,0.3347321,0.0669479c0.167366,0.0334778,0.2677841,0.1338959,0.2677841,0.3012619
			c0.0334778,0.4686203,0.0334778,0.9372406,0,1.4058762c0,0.2008438-0.1338882,0.2677841-0.3347321,0.2008438
			c-0.234314-0.1004181-0.4351501-0.167366-0.6694641-0.2677841c-1.1380844-0.4351501-2.2761765-0.7029419-3.4812088-0.7029419
			c-0.5355759,0-1.037674,0.1004181-1.5062943,0.3012619c-1.6401825,0.7029343-1.8410263,2.4100723-1.20504,3.5481567
			c0.2677841,0.5020981,0.6694641,0.8703079,1.138092,1.1715622c0.6359863,0.4686279,1.3389206,0.8368301,2.0418625,1.1715622
			c0.9037781,0.4351501,1.8075485,0.9037857,2.6109085,1.4393463c0.3682022,0.2677841,0.736412,0.5355759,1.0711441,0.8368301
			c0.6359863,0.6025162,1.1380844,1.3389282,1.3389282,2.2092361
			C107.3485718,89.7081833,107.3485718,90.5784836,107.3485718,91.4487915z"/>
		<path class="st0" d="M35.81633,86.0261307c0,2.7782669,0,5.5565491,0,8.3013458c0,0.635994,0,0.635994-0.6359901,0.635994
			c-0.4686241,0-0.9037743,0-1.3724022,0c-0.3682022,0-0.4016762-0.0334778-0.4351501-0.4351501c0-0.2008438,0-0.3682098,0-0.569046
			c0-2.3766022,0-4.7532043,0-7.1297913c0-0.569046,0-0.569046-0.569046-0.569046c-2.1757565,0-4.3180428,0-6.4938011,0
			c-0.10042,0-0.2008381,0-0.267786,0c-0.20084,0-0.2677879,0.1004105-0.2677879,0.2677765c0,0.1338959,0,0.2343216,0,0.3682098
			c0,2.4770126,0,4.9540329,0,7.4310532c0,0.635994,0,0.635994-0.6359901,0.635994c-0.5020981,0-0.9707241,0-1.4728222,0
			c-0.30126,0-0.3347321-0.0334778-0.3347321-0.3347321c0-0.1338959,0-0.3012619,0-0.4351501c0-4.6193008,0-9.2386093,0-13.8913803
			c0-0.234314,0-0.4686203-0.0334721-0.7029419c-0.066946-0.6359863-0.3347321-0.9707184-0.9707241-1.1380844
			c-0.3012581-0.1004181-0.6359901-0.1338882-0.9707222-0.167366c-0.133894,0-0.2677879-0.0334778-0.4016781-0.0669479
			c-0.2008381-0.0334778-0.267786-0.1338959-0.267786-0.3347321c0-0.2008438,0.1338921-0.2677841,0.267786-0.3012619
			c0.4351521-0.0669479,0.8703022-0.1004105,1.2719822-0.167366c1.0041962-0.1338882,2.0083923-0.234314,3.0125885-0.3682022
			c0.468626-0.0669556,0.468626-0.0334778,0.468626,0.4351425c0,1.0041962,0,2.0418701,0,3.0460663
			c0,1.3054504,0,2.6109085,0,3.8828964c0,0.1338882,0,0.234314,0,0.3682022c0,0.1338959,0.10042,0.2343216,0.2343102,0.2343216
			c0.1004219,0,0.20084,0,0.2677879,0c2.1757584,0,4.3515167,0,6.5272732,0c0.0669479,0,0.1004219,0,0.167366,0
			c0.3347321,0,0.368206-0.0669556,0.40168-0.3682098c0-0.1338882,0-0.234314,0-0.3682098c0-2.2427063,0-4.4519272,0-6.6946411
			c0-0.6025085,0-0.6025085,0.6025162-0.6025085c0.5020981,0,0.970726,0,1.4728241,0
			c0.3347321,0,0.368206,0.0669479,0.4016762,0.3682022c0,0.2343216,0,0.5020981,0,0.7364197
			C35.81633,80.8043137,35.81633,83.4152222,35.81633,86.0261307z"/>
		<path class="st0" d="M53.8249168,86.0261307c0.033474,1.4058762-0.1004219,2.7113266-0.3682098,3.9833069
			c-0.1338882,0.6025162-0.3347321,1.20504-0.5690422,1.8075485c-0.8033562,1.8410263-2.2092323,2.9456406-4.1841507,3.3138504
			c-1.3389282,0.234314-2.6778564,0.234314-3.9833107-0.0669556c-1.9079704-0.4686203-3.2134285-1.6736603-3.9498367-3.4812088
			c-0.4686241-1.1046143-0.6694641-2.2427063-0.8033562-3.4477386c-0.167366-1.8075485-0.1338921-3.6485748,0.167366-5.4561234
			c0.1338921-0.7698822,0.3347321-1.539772,0.6359901-2.2761765c0.8703041-2.0083923,2.3765984-3.1799545,4.5188828-3.5146866
			c1.2385063-0.2008438,2.5104904-0.167366,3.7489967,0.167366c1.5732384,0.4351501,2.7448006,1.3389282,3.5146866,2.7448044
			c0.60252,1.0711517,0.9037743,2.2427139,1.0711403,3.4477386C53.7914391,84.2185745,53.858387,85.1558304,53.8249168,86.0261307z
			 M51.1135826,86.0596008c0-1.2050323-0.033474-2.3765945-0.20084-3.5816345
			c-0.1338921-0.9372482-0.3347321-1.8410263-0.8033562-2.6778564c-0.5020981-0.9037781-1.2719803-1.539772-2.3096466-1.7740784
			c-0.40168-0.0669479-0.8033562-0.0669479-1.20504-0.0669479c-1.1715622,0.0334778-2.1088104,0.569046-2.7448006,1.5732422
			c-0.4016762,0.635994-0.6359901,1.3389282-0.8033562,2.0418701c-0.3347321,1.4058762-0.3347321,2.8452225-0.368206,4.2845688
			c-0.033474,0.9037781,0.033474,1.8075485,0.1004219,2.7113266c0.0669441,1.037674,0.2343102,2.0753479,0.6359863,3.0795441
			c0.4686241,1.1380844,1.20504,2.0083923,2.4770164,2.3431244c0.5690422,0.1338882,1.1715622,0.167366,1.7740822,0.0669479
			c0.9372482-0.167366,1.7071342-0.6025162,2.2427025-1.4058762c0.435154-0.635994,0.7029381-1.3389282,0.8703041-2.0753479
			C51.0466385,89.0721893,51.0801125,87.5658951,51.1135826,86.0596008z"/>
		<path class="st0" d="M71.164032,87.1307526c0-2.3431244,0-4.6527786,0-6.995903
			c0-0.3347321-0.0334702-0.6359863-0.0669403-0.9707184c-0.0669479-0.5355759-0.3682098-0.9037781-0.8703079-1.1380844
			c-0.40168-0.167366-0.8368301-0.2343216-1.2719803-0.3347321c-0.1004257-0.0334778-0.2008438-0.0334778-0.2677917-0.0669556
			c-0.1338882-0.0669479-0.167366-0.167366-0.167366-0.3347321c0-0.1338882,0.1004257-0.234314,0.234314-0.2677765
			c0.1338882,0,0.2677841,0,0.40168,0c3.7489929,0,7.5314713,0,11.2804642,0c0.1004181,0,0.2008438,0,0.3012619,0
			c0.3012543,0.0334702,0.3682022,0.0669479,0.40168,0.3682022c0.1004181,0.8703079,0.0669479,1.7740784,0.1004181,2.6778564
			c0,0.2008438-0.0669556,0.3012619-0.2677841,0.3012619c-0.6025162,0-0.6694641,0-0.7698822-0.5690536
			c-0.2008362-1.2050323-0.6359863-1.5732422-1.8744965-1.5732422c-1.1715622,0-2.3431244,0-3.4812164,0
			c-0.1338882,0-0.2677841,0-0.4016724,0.0334778c-0.4351578,0.0669479-0.6694641,0.2677765-0.7698898,0.7029343
			c-0.0334702,0.2008438-0.0334702,0.4016876-0.0334702,0.635994c0,1.6067047,0,3.2134247,0,4.7866592
			c0,0.1004181,0,0.2343216,0,0.3347321c0,0.167366,0.1004181,0.2677841,0.2677841,0.2677841c0.1004181,0,0.2008438,0,0.3012543,0
			c0.970726,0,1.941452,0,2.9121704,0c0.1338882,0,0.3012543,0,0.4351501,0
			c1.0042038-0.1004181,1.4728241-0.5020981,1.7071304-1.4728165c0.0334778-0.1338959,0.0669556-0.2677841,0.1004181-0.4351501
			c0.0334778-0.1338882,0.1338882-0.2008438,0.2677841-0.234314c0.3347321-0.0334778,0.4686203,0.0334702,0.4686203,0.40168
			c0,0.8368301,0,1.6401825,0,2.4770126c0,0.7698822,0,1.5062943,0,2.2761765c0,0.3347321-0.167366,0.4686203-0.5020981,0.40168
			c-0.167366-0.0334702-0.234314-0.1338882-0.2677841-0.3012543c-0.0669479-0.234314-0.1004105-0.4686203-0.167366-0.7029419
			c-0.167366-0.6359863-0.5355682-1.0041962-1.1715622-1.1380844c-0.2677841-0.0334778-0.5020981-0.1004181-0.7698822-0.1004181
			c-1.037674,0-2.0753403,0-3.1130066,0c-0.5020981,0-0.5355759,0.0334778-0.5355759,0.5355759c0,1.9749146,0,3.9498367,0,5.9247589
			c0,0.167366,0,0.3347321,0.0334778,0.4686279c0.0669403,0.3012543,0.2343063,0.5355682,0.5690384,0.569046
			c0.3012619,0.0669479,0.635994,0.1004181,0.970726,0.1004181c1.1046143,0,2.2092285,0,3.2803726,0
			c0.2677841,0,0.5355759-0.0334778,0.8033524-0.0669556c0.6025162-0.0669479,0.970726-0.4351425,1.138092-0.9707184
			c0.1004105-0.3682098,0.167366-0.736412,0.2677765-1.0711441c0.1004181-0.4016876,0.5020981-0.6025162,0.8703079-0.4351501
			c0.1338882,0.0669479,0.167366,0.2008438,0.167366,0.3347321c-0.0334778,0.6694641-0.0669479,1.3054504-0.1004181,1.9749146
			c-0.0334702,0.3347321-0.0334702,0.6694641-0.0669479,1.0041962c-0.0334778,0.3012619-0.1004181,0.3682098-0.40168,0.3682098
			c-0.1004181,0-0.2008438,0-0.3012619,0c-3.0125885,0-6.025177,0-9.0042877,0c-0.7029419,0-0.7029419,0-0.7029419-0.736412
			C71.164032,91.8839417,71.164032,89.5073471,71.164032,87.1307526z"/>
		<path class="st0" d="M62.8626785,86.5951767c0,2.5439682,0,5.0879288,0,7.6653595c0,0.7364197,0,0.7364197-0.7364082,0.7364197
			c-0.435154,0-0.8703041,0-1.3054543,0c-0.3347321,0-0.368206-0.0669556-0.4016762-0.4016876c0-0.167366,0-0.3347321,0-0.4686203
			c0-5.0209808,0-10.0084839,0-15.0294647c0-0.80336,0-0.80336-0.8033562-0.80336c-0.5355721,0-1.0711403,0-1.6067123,0
			c-0.2008438,0-0.435154,0-0.6359901,0.0334778c-0.8368301,0.0669479-1.3389282,0.5020981-1.5062943,1.3389282
			c-0.033474,0.2677841-0.0669441,0.5020981-0.1004219,0.7698822c-0.0669441,0.3682022-0.1338882,0.4351425-0.5690422,0.40168
			c-0.368206,0-0.4016762-0.0669479-0.4351501-0.4351501c0-0.234314,0-0.5020981,0-0.736412
			c0.0669441-0.6359863,0.0669441-1.2719803,0.0669441-1.8745041c0.033474-0.6694641,0.033474-0.6694641,0.7029381-0.6694641
			c2.8117485,0,5.6235008,0,8.4352455,0c1.2719803,0,2.5104904,0,3.7824707,0c0.5355759,0,0.569046,0.0334778,0.6025238,0.5690536
			c0.0334702,0.8703003,0.0669403,1.7406082,0.1004181,2.6109009c0,0.5020981-0.3682098,0.7029419-0.8033524,0.5020981
			c-0.167366-0.0669479-0.167366-0.234314-0.2008438-0.3682022c-0.0334778-0.2677841-0.0669479-0.5355759-0.1004181-0.80336
			c-0.167366-0.7698746-0.569046-1.2050323-1.372406-1.2719727c-0.9372482-0.1004181-1.8744965-0.0334778-2.8117447-0.0334778
			c-0.2008438,0-0.3347321,0.1004181-0.3347321,0.3347321c0,0.1338882,0,0.3012543,0,0.4351501
			C62.8626785,81.5741959,62.8626785,84.0846863,62.8626785,86.5951767z"/>
		<path class="st0" d="M87.3985367,85.1558304c0,2.3431244,0,4.7197266,0,7.062851c0,0.3012543,0,0.6025162,0.1004181,0.9037781
			c0.1004181,0.3682098,0.3012543,0.5690536,0.6694641,0.6025162c0.1338882,0.0334778,0.3012543,0.0334778,0.4351501,0.0669479
			c1.3054504,0.0334778,2.5774384,0.1004181,3.8494186-0.0334702c0.7029343-0.0669556,1.1380844-0.5020981,1.3054504-1.1715622
			c0.1004181-0.4016876,0.167366-0.80336,0.2008438-1.20504c0.0334702-0.40168,0.5020981-0.6025162,0.8703003-0.40168
			c0.1338959,0.0669479,0.1338959,0.2008362,0.1338959,0.3347321c0,0.8703003-0.0334778,1.7071304-0.0669556,2.5774384
			c0,0.234314-0.0334702,0.4351501-0.0334702,0.6694641c-0.0334778,0.3347321-0.0669556,0.40168-0.4016876,0.40168
			c-0.1004105,0-0.2008362,0-0.3012543,0c-2.8452225,0-5.6904449,0-8.5356674,0c-0.7029419,0-0.7029419,0-0.7029419-0.736412
			c0-4.6193008,0-9.2720795,0-13.8913803c0-0.3012543,0-0.569046-0.0669479-0.8703079
			c-0.1004181-0.5355682-0.4351501-0.8368301-0.9372482-0.9707184c-0.4351425-0.1004181-0.8703003-0.1338882-1.3054504-0.2008438
			c-0.1338882-0.0334702-0.3012543-0.0669479-0.3347321-0.234314c-0.0334778-0.234314,0.0334778-0.3682098,0.3012543-0.40168
			c0.4686279-0.0669556,0.9372482-0.1338959,1.4058838-0.2008438c0.9372406-0.1338882,1.8744965-0.234314,2.8452225-0.3347321
			c0.4686203-0.0669479,0.5355682-0.0334778,0.5355682,0.4686203c0,1.7406158,0,3.4812164,0,5.2218246
			C87.3985367,83.616066,87.3985367,84.3859406,87.3985367,85.1558304z"/>
	</g>
	<g>
		<path class="st0" d="M0.0000032,86.9633865c0.2008394,0,0.3682054-0.1004181,0.5355713-0.2008438
			c3.1799536-1.6067123,6.3599081-3.1799545,9.5063896-4.820137c4.3180437-2.2092361,8.6026125-4.4519348,12.8537111-6.7615891
			c1.1046162-0.6025162,2.2092304-1.20504,3.3138466-1.8075485c0.3682041-0.2008438,0.5020981-0.40168,0.5020981-0.8368301
			c0-6.0921249,0-12.21772,0-18.3098412c0-0.1004219,0-0.2008438,0-0.40168
			c-0.2008381,0.2677879-0.2343121,0.5020981-0.30126,0.7029419c-1.5397663,4.5858269-3.0460606,9.1716537-4.5858269,13.7574806
			c-0.5020981,1.5062943-1.0041962,3.0460663-1.5397663,4.5523605c-0.167366,0.5355759-0.167366,0.5355759-0.7029381,0.5355759
			c-0.5690422,0-1.1380882,0-1.7071323,0c-0.267786,0-0.4351521-0.1004257-0.5020981-0.3682098
			c-0.10042-0.40168-0.2343121-0.7698822-0.3682041-1.1380844c-1.9414473-5.8243408-3.8828917-11.682148-5.824338-17.5064888
			c-0.033473-0.1338921-0.066947-0.2677879-0.234313-0.4686241c0,0.2343102,0,0.4016762,0,0.5690422
			c0,6.025177,0,12.0503578,0,18.0755348c0,0.9372482,0,0.8368301-0.8368301,0.8368301c-0.234313,0-0.4686251,0-0.6694641,0
			s-0.301259-0.1004257-0.301259-0.3012619s0-0.4016724,0-0.5690384c0-5.7239227,0-11.4813118,0-17.2052345
			c0-0.3012543,0-0.6025162-0.033473-0.9037743c-0.066947-0.9037743-0.401679-1.3724022-1.3054552-1.6401863
			c-0.5020981-0.1338882-1.0041962-0.2677841-1.5062943-0.368206c-0.234313-0.0669441-0.3012595-0.20084-0.3012595-0.4016762
			c0-0.2008438,0.1004195-0.3012581,0.3012595-0.3012581c0.100419,0,0.2343125,0,0.3347321,0c1.9414454,0,3.9163647,0,5.85781,0
			c0.6025181,0,0.6025181,0,0.7698841,0.5690422c1.4058733,4.1172066,2.8117485,8.2678833,4.2176228,12.3850899
			c0.5690441,1.6401825,1.1380901,3.3138428,1.7071323,4.9540329c0.033474,0.1004181,0.033474,0.234314,0.167366,0.3347321
			c0.133894-0.1004181,0.167366-0.3012543,0.2343121-0.4351501c0.7029362-2.0083923,1.3724003-4.0167847,2.0418644-5.991703
			c1.2719841-3.7155304,2.5439625-7.4645271,3.8159466-11.1800537c0.2008381-0.569046,0.2008381-0.569046,0.7698841-0.569046
			c0.9372501,0,1.8744984,0,2.8117504,0c0.5690422,0,0.6025181,0.0334778,0.6025181,0.60252c0,2.5104904,0,5.0209808,0,7.4979973
			c0,3.7155266,0,7.3975792,0,11.113102c0,0.6694641,0,0.6694641,0.5690441,0.3347321
			c0.7698841-0.4351501,1.5062943-0.8703079,2.2761784-1.3054504c0.2343102-0.1338959,0.368206-0.3012619,0.4686241-0.5355759
			c1.3724022-3.7155304,2.7782784-7.4310493,4.1506767-11.1800537c0.1004181-0.2343102,0.167366-0.5020981,0.20084-0.7364082
			c0.0669441-0.435154-0.1338882-0.7029419-0.5020981-0.9037781c-0.3012543-0.1338882-0.6025162-0.2343102-0.9037743-0.3012543
			c-0.1338921-0.0334778-0.2677879-0.0669479-0.4016762-0.1338921c-0.1338959-0.0669441-0.167366-0.20084-0.167366-0.3347321
			s0.1004181-0.2343102,0.2343102-0.2343102c0.1004219,0,0.20084,0,0.3012581,0c1.2050362,0,2.3765984,0,3.5816307,0
			c0.5020981,0,0.5355721,0.033474,0.7029381,0.5020981c0.8368301,2.1757584,1.6736603,4.3849907,2.5104904,6.5607491
			c0.2343102,0.6359901,0.20084,0.60252,0.7364082,0.2343102c1.7740822-1.2385063,3.5146866-2.4770126,5.2887688-3.6820526
			c0.3347321-0.2343102,0.4686241-0.4686203,0.435154-0.8703041c-0.0334778-1.2719841-0.3012581-1.6067162-1.539772-1.9079704
			c-0.2677841-0.0669479-0.5020981-0.1338921-0.7698822-0.167366c-0.2008438-0.0334778-0.40168-0.1004219-0.3682098-0.3347321
			c0-0.2008438,0.1004219-0.2677879,0.4686241-0.3012581c0.1338921,0,0.2677879,0,0.4016762,0c1.9749184,0,3.9498405,0,5.9247589,0
			c0.4016762,0,0.7029381-0.1004219,1.0376701-0.3012581c2.6443787-1.8745003,5.288765-3.7489967,7.9331474-5.623497
			c0.1338921-0.1004219,0.2343102-0.2008438,0.435154-0.234314c0.033474,0.2008438-0.1004219,0.3012581-0.2008438,0.40168
			c-0.6359863,0.7029381-1.3054504,1.3724022-2.0083923,2.0083923c-1.4058723,1.2719803-2.8786964,2.4770126-4.3515167,3.6151047
			c-0.0669441,0.0334778-0.1338882,0.1004219-0.20084,0.167366c0.1338921,0.1338921,0.2677879,0.1338921,0.4016762,0.1338921
			c0.569046,0.1004219,1.1380882,0.2677879,1.6401863,0.5355721c1.2719841,0.6694641,1.8745003,1.7406082,1.9749184,3.1130104
			c0.1338882,1.8745003-0.60252,3.3138466-2.2092361,4.3180428c-0.5355721,0.3347282-1.1046143,0.60252-1.7071342,0.769886
			c-0.167366,0.0334702-0.3012581,0.0669403-0.435154,0.167366c-0.033474,0.167366,0.1004219,0.2008362,0.2008438,0.2343063
			c1.8745003,1.0711441,3.3807945,2.5439682,4.6193008,4.2845764c0.435154,0.6025162,0.736412,1.2385025,1.20504,1.8075485
			c1.0041962,1.20504,2.1757584,2.2761765,3.4812088,3.1464767c0.9037781,0.6025162,1.9079742,0.8368301,2.9791107,0.736412
			c0.2008438-0.0334778,0.3682098,0,0.5355759,0.1338882c0.2008438,0.167366,0.3682098,0.3012543,0.569046,0.4686203
			c0.1338882,0.1338959,0.1004181,0.2343216-0.0669479,0.3012619c-0.1004181,0.0334702-0.2008438,0.0669479-0.3347321,0.0669479
			c-0.3347321,0.0334778-0.6694641,0.1004181-1.0041962,0.0669479c-0.7029419-0.0669479-1.4058762,0-2.0753403-0.1004105
			c-1.5732346-0.2343216-2.9791107-0.8368301-4.2845688-1.7071381c-1.4728165-0.9707184-2.6778564-2.2092285-3.7489967-3.6151047
			c-0.9707222-1.2719803-1.8075523-2.6778564-2.5104904-4.1172028c-0.5355721-1.1046219-1.4058723-1.6736603-2.6778564-1.6736603
			c-0.9707184,0-0.9037743-0.0669479-0.9037743,0.9037704c0,2.3096542,0,4.5858307,0,6.8954849c0,0.1338882,0,0.3012543,0,0.4351501
			c-0.033474,0.40168-0.0669441,0.4351578-0.4686241,0.4351578c-0.5020981,0-1.0041962,0-1.5062943,0
			c-0.4016762,0-0.4351501-0.0669479-0.4686203-0.4351578c0-0.1338882,0-0.3012543,0-0.4351501c0-3.7490005,0-7.5314713,0-11.280468
			c0-0.167366,0.1004181-0.435154-0.1004219-0.5355759c-0.167366-0.0669441-0.3012581,0.1338921-0.4686241,0.234314
			c-1.6067123,1.0711403-3.1799545,2.1422806-4.7866669,3.2134285c-0.435154,0.3012543-0.435154,0.3012543-0.234314,0.8033524
			c1.0041962,2.5774384,1.9749184,5.1548767,2.9791145,7.7323151c0.2677879,0.736412,0.2677879,0.736412-0.4686241,0.736412
			c-0.3347321,0-0.6359863,0-0.9707184,0c-0.5355759,0-0.569046,0-0.736412-0.5020981
			c-0.368206-1.0041962-0.7698822-2.0083923-1.1380844-2.9791183c-0.4686241-1.2719803-0.9707222-2.5774307-1.4393501-3.8494186
			c-0.033474-0.0669403-0.0669441-0.167366-0.1004219-0.2343063c-0.0669441-0.1338959-0.167366-0.2008438-0.3012543-0.1004257
			c-0.0669479,0.0334778-0.1338921,0.0669479-0.2008438,0.1338959c-2.0418663,1.2719803-4.0837288,2.5774307-6.1255951,3.8494186
			c-0.2677879,0.167366-0.435154,0.4016724-0.5690422,0.7029343c-0.3012619,0.8703079-0.635994,1.7406082-0.937252,2.5774384
			c-0.167366,0.4351501-0.167366,0.4351501-0.6359901,0.4351501c-0.3347321,0-0.6694641,0-1.0041981,0
			c-0.267786,0-0.3347321-0.0669403-0.2343102-0.3347321c0.1338921-0.4016724,0.3012581-0.8033524,0.468626-1.2385025
			c0.0334702-0.1338959,0.1004181-0.234314,0.1004181-0.3682098c-0.1338921-0.0669479-0.2008381,0.0334778-0.3012581,0.1004181
			c-0.6025181,0.3347321-1.2050343,0.7029419-1.8075542,1.037674c-0.2343102,0.1338882-0.4351521,0.3012543-0.4016762,0.6025162
			c0,0.234314-0.133894,0.3682098-0.368206,0.3347321c-0.7029362-0.1004181-1.2385063,0.2008438-1.8075523,0.5355759
			c-4.6193027,2.5774307-9.3390255,5.0209808-14.0922184,7.3306351c-4.1841507,2.0083923-8.4017735,3.9498291-12.6863451,5.7239151
			C0.4686247,87.3316116,0.267786,87.3985596,0,87.3985596C0.0000032,87.0303268,0.0000032,86.9968567,0.0000032,86.9633865z
			 M51.5822105,60.9212303L51.5822105,60.9212303c0,0.6694641,0,1.372406,0,2.0418701
			c0,0.3347321,0.0669479,0.4016762,0.3347321,0.4016762c1.037674,0.033474,2.0753403,0.033474,3.0795364-0.3012581
			c1.1380844-0.368206,1.8745003-1.1046143,2.1088104-2.3096466c0.0669441-0.3682098,0.1004219-0.7029419,0.1004219-1.0711441
			c0-1.6401825-0.8703079-2.6778564-2.4435463-3.0125885c-0.2677841-0.0669441-0.4686203-0.033474-0.6694641,0.1338921
			c-0.7029381,0.5355721-1.4393463,1.0711403-2.1422806,1.5732384c-0.234314,0.167366-0.3347321,0.3682098-0.3347321,0.6359901
			C51.5822105,59.682724,51.5822105,60.3187141,51.5822105,60.9212303z M38.7954445,58.3772659
			c-1.20504,3.2468987-2.3765984,6.4603271-3.5816307,9.7072296c0.1004181,0.0669479,0.167366,0.0334778,0.2008362,0
			c1.8410225-1.1046143,3.6485786-2.2761765,5.3557091-3.5481644c0.3012581-0.2343063,0.3347321-0.2677841,0.167366-0.6694603
			c-0.6694641-1.7740822-1.3054504-3.5481644-1.9749146-5.2887688
			C38.9962845,58.4776878,38.9628105,58.4107399,38.7954445,58.3772659z"/>
		<path class="st0" d="M65.138855,0c0.2008438,0.7364107,0.569046,1.4393475,0.9037781,2.1422856
			c1.5062943,3.4477398,3.0460663,6.8954811,4.3180389,10.4771128c0.1338959,0.3682041,0.234314,0.7364092,0.3682098,1.1046162
			c0.0669479,0.167366,0.0669479,0.3347321-0.1004181,0.4016781c-0.167366,0.0669451-0.3347321,0.0669451-0.5020981-0.100421
			c-0.0669479-0.0669451-0.1004257-0.167366-0.167366-0.2343111c-1.5732422-2.5774355-3.1464844-5.1883469-4.7197266-7.7657838
			c-0.569046-0.9372492-0.8033524-2.0083923-0.8703079-3.079535C64.3020248,1.9414456,64.4359131,0.9707221,64.569809,0
			C64.737175,0,64.9380188,0,65.138855,0z"/>
		<path class="st0" d="M94.0931778,19.6152973c-0.1338882-0.0334721-0.2677765,0.033474-0.3682022,0.066946
			c-1.7071381,0.6359921-3.4142761,1.2385082-5.0879364,1.8744984c-1.7071304,0.6359921-3.3807907,1.3054562-4.9875031,2.1757584
			c-0.6025162,0.30126-1.0711441,0.3682041-1.7071381,0.133894c-1.2050323-0.4016781-2.4435349-0.6694641-3.7155228-0.5020981
			c-2.7448044,0.3347321-4.8870926,1.6067142-6.5272751,3.8494186c-0.1004257,0.1338921-0.1338959,0.267786-0.3347321,0.3682041
			c-0.0334778-0.167366-0.0334778-0.3347321-0.0669479-0.468626c-0.167366-0.8368301,0.0334778-1.5732384,0.5020981-2.2427025
			c0.1338882-0.167366,0.234314-0.368206,0.3682098-0.5020981c0.8033524-0.9707241,1.1046143-2.1422863,1.3054504-3.3473206
			c0.1004181-0.5355701,0.1004181-1.0711422,0.0669479-1.6067142c-0.1338959-1.4058743-0.4686279-2.7448025-1.0041962-4.0167847
			c-0.40168-0.9707241-0.7029419-1.9414473-0.9372559-2.9456434c-0.0669403-0.3347321-0.167366-0.6694641-0.2343063-1.0041962
			c-0.7029419-3.0460606-1.5062943-6.0586491-2.7113342-8.9373455c-0.0669479-0.167366-0.1338882-0.3347321-0.234314-0.4686255
			c-0.1338882-0.1338933-0.2343063-0.3347319-0.4686203-0.2677853c-0.2008438,0.0669467-0.2008438,0.2677853-0.2677841,0.4351513
			c-0.1004257,0.3347321-0.0669479,0.7029369-0.0669479,1.0711429c0,1.0041962,0.1004181,2.0083923,0.5020981,2.9791155
			s0.736412,2.0083919,1.1046143,3.012588c0.5355759,1.4393482,1.037674,2.8452225,1.5732422,4.2845716
			c0.0669479,0.2008381,0.1338882,0.4351521,0.40168,0.4351521c0.3682022,0.033473,0.4351501,0.30126,0.5020981,0.5690441
			c0.4016724,1.5397663,0.7364044,3.1130085,1.1046143,4.6862488c0.167366,0.8033562,0.1004181,1.5397663-0.2008438,2.2427025
			c-0.1338882,0.2677879-0.2343063,0.5355721-0.3682022,0.8033581c-0.234314,0.5020981-0.5020981,1.0041962-0.7698898,1.5062943
			c-0.6694641,1.3724003-1.1046143,2.7782764-0.6025162,4.2845707c0.0669479,0.167366,0.0334778,0.30126-0.1004181,0.468626
			c-0.4686279,0.6025181-0.9372559,1.1715622-1.4393539,1.7740803c-0.2343063,0.267786-0.3012543,0.267786-0.6025162,0.066946
			c-0.3347321-0.20084-0.6359863-0.435154-0.9707184-0.6694641c-0.2677917-0.20084-0.5355759-0.30126-0.8368301-0.3347321
			c-0.9037781-0.1004219-1.8075562-0.20084-2.6778564-0.3347321c-0.9707222-0.133894-1.9414482-0.30126-2.9121704-0.468626
			c-0.167366-0.0334721-0.3012543-0.066946-0.368206-0.267786c-0.167366-0.3347321-0.2343102-0.368206-0.60252-0.30126
			c-0.3012543,0.066946-0.6359863,0.133894-0.9372482,0.2008381c-0.3012581,0.066946-0.6359901,0.066946-1.037674-0.0334721
			c0.435154-0.2008381,0.769886-0.2343121,1.1380882-0.2343121c0.3347321,0,0.6359901-0.0334721,0.9707222-0.1338921
			c0.3347321-0.066946,0.6025162-0.20084,0.8368301-0.468626c0.1338882-0.2008381,0.20084-0.4016781,0.0669441-0.6359921
			c-0.1004219-0.2008381-0.3012581-0.2343102-0.5020981-0.2343102c-0.0669441,0-0.1338921,0-0.20084,0
			c-1.1380882,0.10042-2.2427063,0.2008381-3.3473206,0.4351521c-0.9037781,0.2008381-1.8410263,0.2343121-2.6443825,0.7364101
			c-0.1004219,0.0669441-0.2677879,0.10042-0.4016762,0c0.1004181-0.133894,0.2343102-0.133894,0.368206-0.20084
			c1.7406044-0.6025181,3.5481606-0.9037743,5.3891869-1.1380882c0.4686241-0.066946,0.937252-0.133894,1.3389282-0.368206
			c0.2008438-0.10042,0.3682098-0.267786,0.4686241-0.4686241c0.20084-0.4016781,0.1004219-0.5690441-0.368206-0.5690441
			c-0.7029419-0.0334721-1.4058762,0.0334721-2.1088142,0.133894c-2.1422844,0.3012581-4.2176247,0.8368301-6.2594872,1.5062943
			c-0.2343102,0.0669441-0.5020981,0.167366-0.6694641,0.3682041c-0.20084,0.2343121-0.435154,0.2343121-0.7029381,0.167366
			c-1.2719841-0.3682041-2.5439682-0.7364101-3.7824745-1.1715622c-2.9791145-1.0041962-5.824337-2.2761784-8.4687233-3.9833107
			c-0.4351501-0.2677879-0.8703041-0.5690441-1.2719803-0.8703041c-0.2008438-0.1338921-0.435154-0.267786-0.7029419-0.267786
			c-0.4351501,0-0.6025162,0.2343121-0.4351501,0.6025181c0.1004181,0.2343121,0.2677841,0.435154,0.4351501,0.6359921
			c0.8368301,0.8368301,1.7406082,1.5732384,2.7448044,2.2092304c0.6025162,0.3682041,1.2050362,0.7029362,1.8075485,1.0376682
			c0.8033562,0.3347321,1.6067162,0.6359921,2.4100723,0.9707241c0.6025162,0.167366,1.2050362,0.3682041,1.8075485,0.5355701
			c1.9414482,0.5355721,3.8828964,0.937252,5.857811,1.3724022c0.2008438,0.0334721,0.40168,0.0669441,0.60252-0.033474
			c0.20084-0.1338921,0.4016762-0.0669441,0.6025162,0c0.7029419,0.167366,1.372406,0.3347321,2.0753403,0.5020981
			c3.3473206,0.769886,6.7281151,1.3054562,10.1758499,1.2050362c0.167366,0,0.3682098,0,0.5355759-0.033474
			c0.5355682-0.1338921,0.9707184,0.033474,1.3723984,0.4016781c0.2677917,0.2343121,0.5355759,0.5355701,0.7698898,0.8033581
			c0.2677841,0.3012581,0.5355682,0.6359901,0.9037704,0.8033562c0.4686279,0.2343102,0.9037781,0.5020981,1.372406,0.736412
			c0.4351501,0.2343102,0.9037781,0.4016762,1.4393463,0.368206c0.167366,0,0.3347321,0,0.4686279-0.167366
			c-0.1004257-0.20084-0.3347321-0.2343102-0.5020981-0.3347321c-0.5020981-0.2343102-1.0041962-0.4686241-1.4728241-0.7029343
			c-0.2677841-0.133894-0.5020981-0.30126-0.7364044-0.468626c-0.1338959-0.133894-0.1338959-0.2343121-0.0334778-0.3682041
			c0.0669479-0.066946,0.1004181-0.133894,0.167366-0.167366c0.7698822-0.7029381,1.539772-1.4393501,2.2761765-2.1757584
			c0.3347321-0.3347321,0.635994-0.6694641,0.9037781-1.0711422c0.234314-0.3347321,0.4686203-0.6359921,0.736412-0.9372501
			c1.0711365-1.2050362,2.3765945-2.0418663,3.9833069-2.3096523c0.5355759-0.10042,1.037674-0.167366,1.5732422-0.10042
			c0.6025162,0.0669441,1.20504,0.0334721,1.7740784,0.1338921c0.3682098,0.033474,0.736412,0.1004219,1.0711441,0.30126
			c0.4351501,0.2343121,0.4686279,0.3347321,0.167366,0.7364101c-0.2008362,0.3012581-0.4351425,0.5690422-0.7029343,0.8033562
			c-0.3012619,0.2677879-0.3347321,0.30126-0.5020981-0.0669441c-0.2008438-0.435154-0.5355759-0.60252-0.970726-0.60252
			c-0.4686203,0-0.9037781,0.133894-1.2385101,0.468626c-0.3012543,0.30126-0.5355759,0.6359921-0.6694641,1.0376682
			c-0.2677841,0.7029381,0.3347321,1.5732403,1.0711441,1.5397682c0.5690536,0,1.1046143-0.133894,1.5062943-0.5690441
			c0.3682098-0.4351521,0.8368301-0.7029362,1.3054581-1.0041962c2.8786926-1.8410263,5.8243332-3.5816326,8.9038696-5.087925
			c0.1004181-0.066946,0.2008438-0.133894,0.3682098-0.133894c-0.1004181,0.167366-0.2677841,0.267786-0.3682098,0.3347321
			c-2.1757584,1.6401863-4.485405,3.0460606-6.8285294,4.4184608c-0.3347321,0.20084-0.7029419,0.435154-1.0041962,0.6694641
			c-1.1380844,0.9037762-2.0083923,2.0083923-2.7448044,3.2134285c-0.9372482,1.5062943-1.7071381,3.1130066-2.5774384,4.6862488
			c-1.1046143,2.0418663-2.6443787,3.6820526-4.5858307,4.9875031c-2.1757584,1.4728203-4.5523529,2.5104904-6.8954773,3.6485786
			c-0.7029419,0.3347321-1.3389282,0.8033562-1.8410263,1.3724022c-0.40168,0.4686241-0.8033562,0.937252-1.20504,1.4058723
			c-0.5020981,0.569046-1.1046143,1.0041962-1.8410263,1.2385101c-0.3347321,0.1004181-0.6025162,0.1004181-0.8033524-0.2008438
			c-0.1004219-0.1338882-0.2008438-0.2677841-0.40168-0.167366c-0.167366,0.1004219-0.2343102,0.2677879-0.20084,0.4686241
			c0.033474,0.368206,0.3012581,0.60252,0.7029381,0.6359901c0.7029419,0.0669441,1.3389282-0.167366,1.8410263-0.6694641
			c0.3682098-0.3682098,0.736412-0.736412,1.0711441-1.1046181c0.4686203-0.5355721,1.0376663-0.937252,1.6736603-1.2050362
			c3.4477386-1.5397682,6.6611633-3.4812126,9.5398636-5.9247551c1.9079666-1.6067162,3.4812088-3.4477425,4.6192932-5.656971
			c0.7029419-1.3724022,1.4058838-2.7448006,2.1757584-4.1172047c0.4686279-0.8033581,1.037674-1.4393482,1.8410263-1.9079723
			c0.7698822-0.4351521,1.5062943-0.9372501,2.2761765-1.3724003c2.1088104-1.1715622,3.9833069-2.6778564,5.8243332-4.2176228
			c0.7698822-0.6359921,1.539772-1.3054562,2.1757584-2.0753384C94.0597076,19.8161373,94.1935959,19.7491913,94.0931778,19.6152973
			z M80.6369476,27.6153946c-0.4351501,0.4351521-0.9707184,0.5690422-1.539772,0.2343102
			c-0.5355682-0.3012581-0.2677765-1.0711403-0.2677765-1.0711403l0.1004105,0.1338921
			c0.1338959,0.8703041,0.6025162,0.9707241,1.3389282,0.435154c0.7364197-0.5355721,0.1338959-1.3054562,0.1338959-1.3054562
			c-0.0669556-0.4016781,0-0.30126,0.4686203,0C81.3064117,26.3768845,81.0721054,27.1802406,80.6369476,27.6153946z
			 M82.1097641,26.2429905c0.3347321-0.468626,0.635994-0.9372501,0.8368301-1.4728222
			c0.0669556-0.2343102,0.3347321-0.267786,0.5020981-0.3347321c1.6736603-0.6694641,3.3138504-1.3389282,4.9875107-2.0083904
			c0.3012543-0.133894,0.6359863-0.2343121,0.9372406-0.368206C86.8964386,23.364296,84.3859482,24.6028061,82.1097641,26.2429905z"
			/>
		<path class="st0" d="M113.4741592,51.6491547c1.4393463-0.0669441,2.7782745,0.1338921,4.1172028,0.368206
			c0.4686203,0.1004219,0.5020981,0.1004219,0.5020981,0.60252c0,0.4686241,0,0.9707222,0,1.4393501
			c0,0.3012543-0.0669479,0.3347321-0.3682098,0.2343102c-0.4686203-0.167366-0.9037781-0.3347321-1.3723984-0.5020981
			c-0.970726-0.368206-1.9749222-0.5355721-2.9791183-0.6359901c-0.9037781-0.0669441-1.8075485,0.0334778-2.6443787,0.435154
			c-1.7740784,0.8368301-2.0753403,2.9121666-1.20504,4.2845726c0.3347321,0.5355721,0.80336,0.9707184,1.3054581,1.3389282
			c0.7698746,0.5690422,1.6401825,1.0041962,2.4770126,1.4058723c0.8703079,0.435154,1.7406082,0.8703041,2.5774384,1.3724022
			c0.9372482,0.569046,1.7740784,1.20504,2.4770203,2.0753365c1.6401825,2.0753403,1.4728165,5.5230789-0.3347321,7.4310532
			c-0.80336,0.8368301-1.8075562,1.372406-2.8787003,1.7071381c-1.5062943,0.4351501-3.0460663,0.5690384-4.5858307,0.4351501
			c-1.0711517-0.1004181-2.1422882-0.234314-3.2134323-0.4351501c-0.7029419-0.1338959-0.7029419-0.1338959-0.7029419-0.8703079
			c0-0.3682098,0-0.736412,0-1.1046143c0-0.4351578,0.0669556-0.4686279,0.4686279-0.3012619
			c0.7698746,0.3347321,1.5732422,0.6025238,2.3765945,0.8368301c1.1046143,0.3012619,2.2427139,0.4351578,3.4142761,0.3682098
			c0.5355682-0.0334778,1.0711441-0.1338882,1.5397644-0.3347321c1.3054581-0.5355759,1.9414444-1.539772,2.1088104-2.9121704
			c0.234314-1.7740784-0.569046-3.0460587-1.9749146-4.0167847c-0.7698822-0.5355682-1.6067123-0.9707184-2.4435425-1.4058723
			c-0.8368301-0.4351501-1.7071381-0.8703041-2.5104904-1.3724022c-0.8368301-0.5355721-1.6401825-1.1715622-2.2427063-1.9749184
			c-1.3054581-1.7740784-1.2385178-4.652771,0.1004105-6.2594872c0.7029419-0.8703041,1.6401901-1.4058723,2.6778564-1.7406044
			C111.2314529,51.7160988,112.4030151,51.5822029,113.4741592,51.6491547z"/>
		<path class="st0" d="M86.6956024,58.2098999c-0.0669556,0.2343102-0.0334778,0.435154-0.0334778,0.60252
			c0,4.5523567,0,9.1047096,0,13.6570702c0,1.0041885-0.0669479,0.8368301-0.8033524,0.8368301
			c-0.7364197,0-0.7364197,0-0.7364197-0.736412c0-4.6862488,0-9.3724976,0-14.0587463
			c0-0.368206-0.0334702-0.7364082-0.1004105-1.1046181c-0.1004181-0.5355721-0.4016876-0.8703041-0.9037857-1.0376701
			c-0.3682022-0.1338921-0.7698746-0.20084-1.1715622-0.3012581c-0.1004105-0.033474-0.234314-0.033474-0.3347321-0.0669441
			c-0.1338882-0.0669441-0.1338882-0.20084-0.1338882-0.3347321s0.1004181-0.20084,0.2008438-0.2343102
			c0.1338882,0,0.2677765-0.0334778,0.40168-0.0334778c1.4058762,0,2.8117447,0,4.2176285,0
			c0.40168,0,0.6359863,0.1338921,0.8368301,0.5020981c1.6736603,2.9121704,3.3473206,5.824337,5.0209808,8.7365074
			c0.9037781,1.539772,1.7740707,3.1130142,2.6778564,4.6527786c0.0334702,0.0669403,0.0669479,0.1004181,0.1338882,0.2008362
			c0.1338882-0.167366,0.1004181-0.3347321,0.1004181-0.5020981c0-3.1130066,0-6.1925392,0-9.3055496
			c0-1.1715622,0-2.3431244,0-3.5481606c0-0.1338921,0-0.3012581,0.0334702-0.435154
			c0-0.167366,0.1004181-0.2677879,0.2677841-0.2677879c0.3347321,0,0.6359863,0,0.9707184,0
			c0.167366,0,0.2677841,0.1338921,0.2677841,0.2677879c0,0.1338921,0,0.2677879,0,0.4016762c0,5.5230789,0,11.0126839,0,16.5357628
			v0.0334778c0,0.6359863,0,0.6359863-0.6359863,0.6359863c-0.3682098,0-0.7029419,0-1.0711517,0
			c-0.3012543,0.0334702-0.5020981-0.1004257-0.6694641-0.3682098c-0.8368301-1.5062943-1.7071304-3.0125885-2.5774384-4.485405
			c-1.9079742-3.2803726-3.7824707-6.5942192-5.6904449-9.8745956
			C86.8964386,58.4776878,86.8629684,58.3437958,86.6956024,58.2098999z"/>
		<path class="st0" d="M69.5907898,64.971489c0,2.4770126,0,4.9875031,0,7.4645233c0,0.1004181,0,0.2008438,0,0.3012543
			c0,0.569046-0.0334778,0.6025162-0.6025162,0.6025162c-0.5020981,0-1.0041962,0-1.5062943,0
			c-0.3012619,0-0.3682098-0.0669403-0.40168-0.3682022c0-0.167366,0-0.3682098,0-0.5355759c0-5.0209808,0-10.0084839,0-15.0294647
			c0-0.769886,0-0.769886-0.7698822-0.769886c-0.569046,0-1.1715622,0-1.7406082,0c-0.1338882,0-0.3012543,0-0.4351501,0.0334778
			c-0.9037781,0.0669441-1.3389282,0.4686203-1.539772,1.3389282c-0.0669441,0.3012543-0.0669441,0.6025162-0.1338882,0.9037743
			c-0.0669479,0.2343102-0.234314,0.3012581-0.6359901,0.2677879c-0.2343102-0.0334778-0.3347321-0.1338921-0.3347321-0.3682098
			c0.033474-0.9372482,0.0669441-1.9079704,0.1338921-2.8452225c0.033474-0.5020981,0.0669441-0.5020981,0.5690422-0.5020981
			c2.5104866,0,5.020977,0,7.4979973,0c1.5397644,0,3.1130066,0,4.652771,0c0.1338882,0,0.2677841,0,0.40168,0
			c0.2008362,0,0.3012543,0.1004219,0.3347321,0.3347321c0.1004181,1.037674,0.0669403,2.0753403,0.1004181,3.1130104
			c0,0.20084-0.1004181,0.2677879-0.3012543,0.3012581c-0.5355759,0.0669441-0.6694641-0.0334778-0.7029419-0.569046
			c-0.0334778-0.3012543-0.0669479-0.6025162-0.167366-0.9037743c-0.1338882-0.5020981-0.4686203-0.8033562-0.9707184-0.937252
			c-0.234314-0.0669441-0.5020981-0.1004181-0.7698898-0.1004181c-0.7364044,0-1.4393463,0-2.1757584,0
			c-0.4686203,0-0.5020981,0.0669441-0.5020981,0.5020981c0,1.1046143,0,2.2092323,0,3.2803726
			C69.5907898,61.9588966,69.5907898,63.4651909,69.5907898,64.971489z"/>
		<path class="st0" d="M80.7373734,64.3689728c0,2.7448044,0,5.4896011,0,8.2344131c0,0.7364044,0,0.7364044-0.736412,0.7364044
			c-0.4686279,0-0.9037857,0-1.372406,0c-0.3012543,0-0.3682098-0.0669403-0.3682098-0.3682022c0-0.167366,0-0.3347321,0-0.4686279
			c0-4.5523529,0-9.0712395,0-13.6235924c0-0.3347321-0.0334702-0.6694641-0.0669403-1.0041962
			c-0.1004257-0.5355721-0.40168-0.8703041-0.9372559-1.0041962c-0.4351501-0.1004181-0.8703003-0.1338882-1.3054504-0.20084
			c-0.1338882-0.033474-0.2677841-0.033474-0.3347321-0.167366c-0.1004181-0.20084,0-0.435154,0.234314-0.4686241
			c0.4351501-0.0669441,0.8703003-0.1338882,1.3054504-0.167366c1.037674-0.1338882,2.0418625-0.2343102,3.0795364-0.368206
			c0.3682022-0.033474,0.4351425,0,0.4686203,0.368206c0,0.1338921,0,0.3012581,0,0.435154
			C80.7373734,58.9797859,80.7373734,61.6576424,80.7373734,64.3689728z"/>
		<path class="st0" d="M63.3982468,35.4815979c0.569046-0.2677879,1.037674-0.6694641,1.5732422-0.9707222
			c0.2343063-0.1338921,0.4351501-0.3012581,0.7364044-0.4016762c0.1004257,0.3012543-0.1004181,0.4686203-0.2008362,0.7029381
			c0.2008362-0.167366,0.4016724-0.3347321,0.6025162-0.4686241c0.1004181-0.0669441,0.167366-0.1338882,0.2677841-0.167366
			c0.1004257-0.0669441,0.234314-0.033474,0.3012619,0.0669479c0.1004181,0.1004181,0.0669403,0.20084,0,0.3012543
			c-0.2008438,0.3012581-0.3682098,0.6359901-0.6694641,0.8703079c-1.4728241,1.1380844-2.8117485,2.4435425-4.0167847,3.8494186
			c-1.2719841,1.5062943-2.3096504,3.1464767-3.1130104,4.9205589c-0.435154,1.0041962-0.9037743,2.0083923-1.4393501,2.9456406
			c-0.2343102,0.40168-0.5355721,0.8033562-0.8703041,1.2719841c0.3347321-0.0669441,0.5355721-0.20084,0.7364082-0.3012581
			c1.1715622-0.5690422,2.2092361-1.3389282,3.2803764-2.0418663c0.1338921-0.1004181,0.2677879-0.167366,0.4016762-0.2343102
			c0.0334778,0,0.0669479,0,0.1338921,0.033474c-0.1004219,0.3347321-0.368206,0.569046-0.60252,0.769886
			c-0.7029381,0.6359863-1.5062943,1.1715622-2.3431244,1.6067123c-0.8703041,0.4686241-1.7406044,0.9037781-2.6443787,1.3389282
			c-0.1004219,0.0669479-0.2008438,0.167366-0.40168,0.0669479c0.736412-1.4058762,1.4728203-2.8117485,2.2092361-4.2176247
			c0.7364082-1.4058762,1.5062943-2.7782784,2.4100685-4.0502625c-0.1338921-0.167366-0.2677879-0.0669441-0.4016762-0.0669441
			c-0.2677879,0.033474-0.5355759,0.0669441-0.8033562-0.033474c-0.3012581-0.1004219-0.368206-0.3347321-0.1338921-0.569046
			c0.2677879-0.2677841,0.569046-0.4686203,0.8368301-0.7364082c1.0041962-0.8368301,2.0083923-1.6736603,3.0125885-2.5104904
			c0.0669479-0.0669441,0.2008438-0.1004219,0.234314-0.3012581c-0.60252,0.4686241-1.1715622,0.8703079-1.7406082,1.3054543
			c-0.8368301,0.6359901-1.6736603,1.3054543-2.4435425,2.0418663c-0.3012581,0.3012581-0.7029419,0.3347321-1.0711441,0.3012581
			c-0.4016762-0.033474-0.5020981-0.3012581-0.2677841-0.6359901c0.1004181-0.167366,0.2677841-0.2343102,0.4016762-0.3347321
			c1.4058723-0.9037743,2.7448006-1.9414444,4.1172066-2.9121666c0.1004181-0.0669441,0.167366-0.167366,0.2343102-0.2343102
			C62.3271065,36.318428,62.8626785,35.916748,63.3982468,35.4815979z"/>
		<path class="st0" d="M67.4819794,15.1298885c-0.2343063,0-0.4016724-0.133894-0.5355682-0.267787
			c-0.635994-0.602519-1.3054581-1.2050352-1.941452-1.8075533c-1.3389244-1.2385082-2.7113266-2.4435434-4.083725-3.6485796
			c-1.20504-1.0711432-1.8075523-2.4770179-2.0083923-4.0837312c-0.0334778-0.234313-0.0334778-0.4351516-0.0669479-0.6694641
			c0-0.167366,0.0334778-0.3347321,0.2008438-0.401679c0.167366-0.0669465,0.2677841,0.033473,0.368206,0.1338935
			c0.5690422,0.5690446,1.1380882,1.1380897,1.7071342,1.7071328c2.4100723,2.5104899,4.7197266,5.0544534,6.9289551,7.7657847
			c0.1338882,0.167366,0.4016724,0.301259,0.2677841,0.602519C68.1849136,14.8286285,67.7832413,15.1298885,67.4819794,15.1298885z"
			/>
		<path class="st0" d="M61.4233322,3.3807943c0-0.3347321,0.033474-0.6694641,0.1004181-1.0041962
			c0.0669479-0.2677853,0.234314-0.3012593,0.435154-0.1338933c0.1004219,0.0669467,0.167366,0.2008388,0.2677879,0.3012593
			c2.2761765,3.0460613,4.418457,6.15907,6.3933792,9.4059696c0.3347321,0.5690432,0.6694641,1.1380892,1.0041962,1.7071323
			c0.167366,0.30126,0.167366,0.3682051-0.167366,0.5020981c-0.4686203,0.2343121-0.9372482,0.2343121-1.2719803-0.3347321
			c-0.569046-0.9707232-1.3389282-1.7740803-2.0753403-2.6109104c-1.0041962-1.1046152-2.0753326-2.1757584-2.9791107-3.3807931
			c-0.8368301-1.1046157-1.4393463-2.3096514-1.6067123-3.6820526C61.4568062,3.8828924,61.4568062,3.6485796,61.4233322,3.3807943z
			"/>
		<path class="st0" d="M42.0758171,25.2053223c0.8033562,0.3347321,1.6067162,0.6359901,2.4100723,0.9707222
			c0.4686203,0.30126,0.9707184,0.4016781,1.5062943,0.5690441c1.7740784,0.5355701,3.5481606,0.9372501,5.3557129,1.3724003
			c0.5020981,0.133894,1.0376701,0.2677879,1.5397682,0.4016781c0.1004219,0.0334721,0.20084,0.066946,0.3347321,0.10042
			c0.1338921,0.066946,0.2343102,0.167366,0.20084,0.3347321c-0.033474,0.167366-0.167366,0.167366-0.3012543,0.167366
			c-0.60252,0.033474-1.2385101-0.0669441-1.8410263-0.1338921c-2.1088142-0.2343121-4.2176285-0.60252-6.2929649-1.1380901
			c-1.9079704-0.5020981-3.7824745-1.0711422-5.6235008-1.8410263c-1.2050362-0.5020981-2.2761765-1.2050343-3.2134285-2.1422863
			c-0.167366-0.167366-0.4351501-0.3012581-0.2677841-0.6025181c0.167366-0.2343121,0.4351501-0.066946,0.6359863-0.0334721
			c1.7406044,0.4016762,3.3807945,1.0711403,5.0209808,1.7740803
			C41.7076149,25.1049042,41.8749809,25.1718483,42.0758171,25.2053223z"/>
		<path class="st0" d="M66.5447311,16.0336628c-0.2677841,0-0.4686203-0.10042-0.6359863-0.2343102
			c-2.3766022-1.7071333-4.8536148-3.2469006-7.1967392-4.9875078c-0.2677879-0.200839-0.4686241-0.4351521-0.60252-0.7364111
			c-0.3347321-0.8033571-0.7364082-1.5732412-0.8703041-2.4770174c-0.0334778-0.234313-0.167366-0.5355711,0.0669441-0.6694641
			c0.2677879-0.1338935,0.5690422,0,0.8033562,0.2008386c0.5020981,0.4686255,1.0376701,0.9372497,1.5732384,1.3724008
			c1.6067162,1.4058752,3.1799545,2.8117485,4.7866707,4.2510967c0.8703003,0.7698851,1.7071304,1.6067152,2.5439606,2.4100704
			c0.1338959,0.133893,0.3682098,0.2343111,0.2677917,0.4686251c-0.1004257,0.267787-0.3347321,0.3347321-0.569046,0.3682051
			C66.6116791,16.0336628,66.5782013,16.0336628,66.5447311,16.0336628z"/>
		<path class="st0" d="M55.9671974,9.7072287c0.20084,0.033473,0.368206,0.133894,0.5355721,0.234313
			c2.1757584,1.3389282,4.3180428,2.6778564,6.460331,4.0837297c1.1380882,0.7364092,2.2427025,1.4728212,3.3138466,2.2427034
			c0.3347321,0.2343121,0.4016724,0.3682041,0.3012543,0.5690441c-0.1338882,0.2343102-0.3012543,0.267786-0.6694641,0.10042
			c-2.7448006-1.2385073-5.5230789-2.4100695-8.3013535-3.6151066c-0.3347321-0.133894-0.60252-0.3682051-0.8033562-0.6694641
			c-0.2677879-0.435153-0.60252-0.8368301-0.8703041-1.2719831c-0.234314-0.3682041-0.40168-0.7698832-0.40168-1.2385082
			C55.5320435,9.8076487,55.6659393,9.6737566,55.9671974,9.7072287z"/>
		<path class="st0" d="M53.1554527,30.1928291c-1.5062943-0.0669441-3.0795364-0.2008381-4.6193047-0.4351521
			c-3.3138466-0.468626-6.5942192-1.2719822-9.8076515-2.2427044c-0.7029381-0.2008381-1.2719803-0.6025181-1.8745003-1.0041962
			c-0.3012543-0.2008381-0.6025162-0.4351521-0.8703041-0.7029362c-0.167366-0.133894-0.1338921-0.267786,0.033474-0.3682041
			c0.234314-0.133894,0.4686241-0.1004219,0.7029419-0.066946c0.5355721,0.066946,1.0376701,0.167366,1.5397682,0.4016781
			c0.7029381,0.3347321,1.4728165,0.6025181,2.1757584,0.9372501c1.5397682,0.7029362,3.1799545,0.9707241,4.7866669,1.3724003
			c1.9749184,0.468626,3.9498405,0.8368301,5.9247589,1.1380901c0.9372482,0.133894,1.8410263,0.2343121,2.7782745,0.3347321
			c0.40168,0.0334721,0.60252,0.133894,0.6359901,0.3347321c0,0.2008381-0.20084,0.30126-0.6694641,0.30126
			C53.691021,30.1928291,53.456707,30.1928291,53.1554527,30.1928291z"/>
		<path class="st0" d="M52.7537727,30.9627151c-2.3765984,0-4.7197227-0.2677879-7.0628471-0.6359921
			c-2.2761803-0.3682041-4.5188828-0.8368301-6.7615852-1.2719822c-0.3012581-0.066946-0.569046-0.167366-0.8033562-0.30126
			c-0.4016762-0.2008381-0.8368301-0.4351521-1.2385063-0.6359921c-0.20084-0.10042-0.368206-0.2008381-0.3012581-0.4686241
			c0.0669479-0.20084,0.234314-0.30126,0.569046-0.20084c1.1715584,0.2677879,2.3096466,0.5355721,3.4812088,0.8368301
			c1.9749184,0.5020981,3.9833107,1.0041962,5.991703,1.3389282c1.1046143,0.20084,2.2427025,0.30126,3.3473206,0.435154
			c1.6067123,0.2008381,3.2468987,0.267786,4.8870888,0.3012581c0.20084,0,0.435154,0,0.6359863,0.066946
			c0.1004219,0.0334721,0.2008438,0.133894,0.2008438,0.2343121c0,0.1338921-0.1338921,0.167366-0.234314,0.167366
			c-0.5020943,0.0334721-1.0376701,0.0669441-1.5397682,0.10042C53.4901848,30.9627151,53.1219749,30.9627151,52.7537727,30.9627151
			z"/>
		<path class="st0" d="M61.7580643,16.5692368c-0.5020981-0.267786-1.0711441-0.3682041-1.6067162-0.5355701
			c-1.3389282-0.3682051-2.6778564-0.7029371-4.0502586-0.9037762c-0.1338921-0.0334721-0.3012581-0.0334721-0.40168-0.133893
			c-0.5020981-0.4016771-0.9037743-0.8703032-1.1380844-1.4728212c-0.167366-0.4016781,0.0669441-0.6694641,0.5020981-0.5690441
			c0.9372482,0.200839,1.8410263,0.468626,2.7448006,0.7698851c2.8452225,0.9372511,5.5230789,2.1422853,8.1674614,3.4812136
			c0.167366,0.066946,0.4016724,0.133894,0.3012543,0.4016781c-0.0669479,0.2008381-0.2677841,0.3012581-0.569046,0.2008381
			c-1.1046143-0.3682041-2.2092285-0.7364101-3.3138428-1.1046162
			C62.1932144,16.6696548,61.9589043,16.6027088,61.7580643,16.5692368L61.7580643,16.5692368z"/>
		<path class="st0" d="M51.2809486,31.7325974c-1.8745003,0.0334721-3.6151047-0.066946-5.3557129-0.20084
			c-2.0418663-0.167366-4.0837288-0.4016762-6.0921211-0.7698841c-0.60252-0.10042-1.1715622-0.4351521-1.7406044-0.7364101
			c-0.167366-0.10042-0.3347321-0.2008381-0.3012581-0.4351521c0.033474-0.167366,0.368206-0.30126,0.60252-0.267786
			c0.8703041,0.167366,1.7071342,0.3012581,2.5774345,0.4686241c1.8745003,0.3347321,3.7489967,0.6359921,5.656971,0.8703041
			c1.6401825,0.2008381,3.3138428,0.3347321,4.9540329,0.4016762c0.937252,0.033474,1.9079742,0.033474,2.8452225,0.033474
			c0.5020981,0,1.0041962-0.066946,1.5062943-0.066946c0.167366,0,0.4016762-0.0334721,0.435154,0.2008381
			c0,0.20084-0.2008438,0.2677879-0.3682098,0.30126c-0.3347321,0.0334721-0.6694641,0.10042-1.0041924,0.10042
			C53.691021,31.6656513,52.4190407,31.7995453,51.2809486,31.7325974z"/>
		<path class="st0" d="M61.7580643,16.5692368c0.5020981,0.2343121,1.0376701,0.3682041,1.5397682,0.5355701
			c0.7029381,0.2677879,1.4058723,0.5020981,2.0753365,0.769886c0.1338882,0.0669441,0.2677841,0.10042,0.40168,0.2008381
			c0.1004181,0.066946,0.1004181,0.2008381,0.0334702,0.30126c-0.1338882,0.2008381-0.5355682,0.3347321-0.7698822,0.267786
			c-0.5020981-0.133894-1.0376663-0.267786-1.5397682-0.4016781c-1.8410263-0.4686241-3.7155266-0.7698841-5.6235008-1.0041962
			c-0.8703041-0.10042-1.7406044-0.2008381-2.6109085-0.267786c-0.435154-0.0334721-1.2050362-0.7029362-1.3054543-1.1380892
			c-0.0669441-0.267787,0.0669479-0.4686251,0.40168-0.4686251s0.6694641,0,1.0041924,0.0334721
			c1.9414482,0.167366,3.8828964,0.5020981,5.7573929,1.0376682C61.3229103,16.5022888,61.5237503,16.5692368,61.7580643,16.5692368
			L61.7580643,16.5692368z"/>
		<path class="st0" d="M47.9671059,32.5024796c-1.2719841,0-2.5439682,0.033474-3.8159447,0
			c-0.9037743-0.0334778-1.8075523-0.0334778-2.7113304-0.1004219c-0.60252-0.033474-1.1715622-0.2343102-1.7071381-0.468626
			c-0.1338882-0.0669441-0.2677841-0.1338921-0.368206-0.2343102c-0.1004219-0.10042-0.2677879-0.2008381-0.20084-0.4016781
			c0.0669441-0.167366,0.2343102-0.2343102,0.368206-0.267786c0.1004219-0.0334721,0.2343102-0.0334721,0.3347321,0
			c1.1380882,0.10042,2.2427025,0.2343121,3.3807945,0.3347321c0.8368301,0.066946,1.7071381,0.133894,2.5439682,0.2343121
			c1.5732384,0.1338921,3.1130066,0.2008381,4.6862488,0.267786c0.7698822,0.0334721,1.5397682,0.0334721,2.3096466-0.0334721
			c0.8033562-0.066946,1.6067162-0.033474,2.4100685-0.133894c0.40168-0.066946,0.8368301-0.066946,1.2385101-0.10042
			c0.0669441,0,0.167366-0.033474,0.2343102,0c0.1004219,0,0.20084,0.0334721,0.2343102,0.167366
			c0.0334778,0.10042-0.033474,0.1673641-0.1004181,0.2343102c-0.1338921,0.1004219-0.3012581,0.167366-0.5020981,0.20084
			c-0.5020981,0.1004181-1.037674,0.1004181-1.539772,0.167366C52.5194588,32.5359535,50.2432823,32.5359535,47.9671059,32.5024796z
			"/>
		<path class="st0" d="M54.092701,26.0086784c-0.4686203,0-1.1046143-0.4351521-1.2719803-0.8033562
			c-0.0669479-0.167366-0.0669479-0.30126,0.1004181-0.4016781c0.2008438-0.133894,0.435154-0.2343121,0.6694641-0.30126
			c1.0041962-0.3012581,2.0418663-0.5355701,3.1130104-0.6694641c1.0711403-0.1338921,2.1757584-0.3012581,3.2468987-0.4351521
			c0.769886-0.10042,1.5732384-0.167366,2.3765984-0.133894c0.40168,0.033474,0.5020981,0.133894,0.3682098,0.5020981
			c-0.1338921,0.435154-0.3682098,0.7364101-0.8703079,0.8033581c-1.1380844,0.133894-2.3096466,0.30126-3.4477386,0.468626
			c-1.3389282,0.167366-2.6443825,0.4351521-3.9163628,0.8703022C54.3270149,25.9417343,54.193119,25.9752064,54.092701,26.0086784z
			"/>
		<path class="st0" d="M55.1638451,17.339119c2.3096466,0.066946,4.5523567,0.3347321,6.7950592,0.8033581
			c1.0041962,0.2008381,2.0083923,0.4351521,3.0125847,0.7029362c0.40168,0.10042,0.4686279,0.3682041,0.2008438,0.6694641
			c-0.1004181,0.10042-0.234314,0.133894-0.3347321,0.10042c-0.3682022-0.0334721-0.7698822-0.0669441-1.1380844-0.1338921
			c-2.0083923-0.2343121-4.0502625-0.435154-6.0586548-0.60252c-0.8368301-0.0669441-1.7071342-0.1338921-2.5439644-0.2008381
			c-0.5020981-0.0334721-0.9707184-0.4016781-1.1046143-0.8703022c-0.1004219-0.3347321,0-0.5020981,0.368206-0.5020981
			C54.6282692,17.339119,54.8960571,17.339119,55.1638451,17.339119z"/>
		<path class="st0" d="M46.7620659,32.6363754c1.372406,0,2.7448044,0.033474,4.1172066,0
			c2.0083923-0.0669479,3.9833107-0.1338921,5.9916992-0.435154c0.0669479,0,0.1338921-0.033474,0.2008438-0.033474
			c0.1338882,0,0.3347321-0.0669441,0.3347321,0.167366c0,0.167366-0.1338921,0.2677841-0.3012581,0.2677841
			c-0.5690422,0.1004219-1.1046181,0.2008438-1.6736603,0.3012581c-1.7071342,0.2677879-3.3807945,0.4016762-5.087925,0.5690422
			c-1.1046181,0.1004219-2.1757584,0.1338921-3.2803764,0.2008438c-1.0041962,0.0669441-2.0418663,0.1004181-3.0460625,0.167366
			c-0.6359901,0.033474-1.2719841,0.033474-1.8745003-0.167366c-0.2677879-0.1004219-0.5020981-0.2008438-0.7029419-0.40168
			c-0.20084-0.20084-0.167366-0.368206,0.0669479-0.5020981c0.2343102-0.1338882,0.4686203-0.1338882,0.7029381-0.1338882
			C43.7494774,32.6363754,45.2557716,32.6363754,46.7620659,32.6363754L46.7620659,32.6363754z"/>
		<path class="st0" d="M61.5906982,21.8580017c-1.8075523-0.0334721-3.5816345,0.066946-5.3557129,0.267786
			c-0.40168,0.033474-0.769886,0.066946-1.1715622,0.1004219c-0.5020981,0.0334721-0.9037743-0.1004219-1.2050362-0.5020981
			c-0.3012581-0.368206-0.167366-0.6694641,0.3012543-0.769886c0.4686241-0.10042,0.937252-0.167366,1.4393501-0.2008381
			c0.7698822-0.066946,1.5397682-0.10042,2.3096466-0.133894c1.0041962-0.0334721,2.0083923,0,3.0125885,0
			c1.0711441,0.033474,2.1088142,0.133894,3.1799545,0.30126c0.3682098,0.066946,0.4351501,0.167366,0.234314,0.5020981
			c-0.167366,0.30126-0.435154,0.4351521-0.769886,0.4351521C62.8961487,21.8580017,62.2601624,21.8580017,61.5906982,21.8580017z"
			/>
		<path class="st0" d="M56.4692955,18.9793072c1.5732384,0.0669441,3.1464806,0.1338921,4.7197227,0.3682041
			c1.037674,0.133894,2.0418701,0.267786,3.0795364,0.4351521c0.1338882,0.033474,0.3012543,0.066946,0.4351501,0.066946
			c0.1338882,0.0334721,0.3012543,0.066946,0.3347321,0.2343121s-0.0334778,0.3012581-0.167366,0.4351521
			s-0.3012543,0.167366-0.5020981,0.133894c-2.2092323-0.30126-4.4519348-0.30126-6.6611633-0.2343121
			c-0.8703079,0.0334721-1.7740822,0.066946-2.6443825,0.10042c-0.4686203,0-1.0376701-0.4686241-1.1380844-0.9372501
			c-0.0669479-0.30126,0.0669441-0.468626,0.4351501-0.468626C55.0634232,19.0797272,55.7663612,18.9458332,56.4692955,18.9793072z"
			/>
		<path class="st0" d="M59.8835602,22.0923157c1.2719841,0,2.2427063,0,3.1799545,0.10042
			c0.1338921,0.033474,0.3012581,0,0.3682098,0.167366c0.0669441,0.20084-0.0334778,0.3347321-0.167366,0.468626
			c-0.167366,0.2008381-0.40168,0.267786-0.6359901,0.267786c-2.4100685,0-4.7866707,0.4016781-7.1632652,0.7698841
			c-0.368206,0.066946-0.7364082,0.1004219-1.1046143,0.133894c-0.4016762,0.0334721-0.937252-0.3347321-1.0711403-0.7029362
			c-0.0669479-0.2008381,0-0.3347321,0.167366-0.468626c0.20084-0.1338921,0.4016762-0.2008381,0.6359863-0.2343102
			c1.1715622-0.167366,2.3431244-0.3347321,3.5146866-0.435154C58.4776878,22.0923157,59.3479919,22.0923157,59.8835602,22.0923157z
			"/>
		<path class="st0" d="M104.0347137,57.0383377c0,0.4686241-0.1004181,0.8703041-0.234314,1.2719841
			c-0.3012619,0.9037743-0.8368301,1.7071342-1.5062943,2.4100685c-0.2677841,0.3012581-0.6025162,0.2677879-0.9372482,0.20084
			c-0.1338882-0.033474-0.167366-0.1338882-0.1004181-0.2677841c0.0669556-0.1004219,0.1338959-0.167366,0.2008438-0.2677879
			c0.234314-0.3012581,0.4686203-0.6359901,0.6359863-0.9707222c0.1004181-0.2343102,0.2008438-0.4351501,0.2343216-0.6694641
			c0.0669479-0.4686203,0-0.5690422-0.5020981-0.7029381c-0.9707184-0.2343102-1.4058762-0.937252-1.1380844-1.8410263
			c0.1004105-0.368206,0.3347321-0.6694641,0.6694641-0.8703041c0.9372406-0.5355759,2.3765945-0.2008438,2.6109009,1.1380844
			C104.0012512,56.7036057,104.0347137,56.9044456,104.0347137,57.0383377z"/>
		<path class="st0" d="M58.2768517,36.2514801c0.20084-0.033474,0.4016762-0.1338882,0.5690422-0.2343102
			c1.0041962-0.5020981,2.0418701-1.0041962,3.0460663-1.5062943c0.20084-0.1004219,0.368206-0.20084,0.6025162-0.1338921
			c0.2008438,0.0334778,0.234314,0.167366,0.1004219,0.3012581c-0.20084,0.167366-0.4016762,0.3347321-0.60252,0.4686241
			c-0.9372482,0.6694641-1.9414444,1.2719803-2.9456406,1.8745003c-0.1338921,0.0669441-0.3012581,0.1338921-0.40168,0.2677879
			c-0.167366,0.1004181-0.3347321,0.20084-0.5020981,0.3012543c-0.6025162,0.234314-1.1046143,0.60252-1.6401825,0.9037781
			c-0.2677879,0.167366-0.569046,0.3012543-0.8033562,0.5355721l0,0c-0.2343102,0.0669441-0.4016762,0.20084-0.6025162,0.3012581
			c-0.40168,0.2677841-0.8368301,0.4016762-1.3054543,0.4686203c-0.3347321,0.0669479-0.6694641-0.033474-0.9037743-0.3012543
			c-0.1338921-0.167366-0.1338921-0.3012581-0.0334778-0.4686241c0.1338921-0.167366,0.3012581-0.2343102,0.4686241-0.3347321
			c1.2719841-0.6359901,2.5774345-1.2719841,3.8494186-1.9079704c0.167366-0.0669479,0.3347321-0.1338921,0.4686203-0.2677879
			C57.9086456,36.5192642,58.0425339,36.3518982,58.2768517,36.2514801z"/>
		<path class="st0" d="M44.8540955,34.9794998c-0.368206-0.0334778-0.6694641-0.0334778-0.9707222-0.0669479
			c-0.20084-0.033474-0.4016762-0.1004181-0.5690422-0.2677841c-0.167366-0.2008438-0.1338921-0.40168,0.1338921-0.435154
			c0.4686203-0.0669441,0.9372482-0.1338921,1.4058723-0.167366c1.4058723-0.1338921,2.8117485-0.2677879,4.2510948-0.368206
			c1.3054543-0.1004219,2.6109123-0.2008438,3.9163666-0.3347321c1.4728165-0.1338921,2.9121666-0.3347321,4.3515129-0.60252
			c0.1338921-0.033474,0.2677879-0.0669441,0.435154-0.033474c0.1004219,0.033474,0.167366,0.1004181,0.167366,0.20084
			s-0.0669441,0.1338921-0.167366,0.167366c-0.2677879,0.0669441-0.5355721,0.1338921-0.8033562,0.20084
			c-2.6443787,0.569046-5.3222351,1.0041962-8.0000916,1.3054543c-1.3389282,0.1338921-2.6778564,0.3012581-4.0502586,0.435154
			C44.9210396,34.9794998,44.8540955,34.9794998,44.8540955,34.9794998z"/>
		<path class="st0" d="M58.1429558,37.6238785c0.167366-0.1004181,0.3347321-0.20084,0.5020981-0.3012543
			c0.20084-0.0334778,0.368206-0.167366,0.5690422-0.2677879c1.4393501-0.8368301,2.8452225-1.7071342,4.2510986-2.6109123
			c0.2343102-0.1338882,0.4351501-0.2677841,0.7364044-0.167366c0.234314,0.1004219,0.3012619,0.234314,0.1004257,0.435154
			c-0.2677841,0.2677879-0.60252,0.4686241-0.8703079,0.769886c-0.5355721,0.4351501-1.0711403,0.8368301-1.6736603,1.1715622
			c-0.6694641,0.3347321-1.2719803,0.8033524-1.9079704,1.2050362c-1.0711403,0.6694641-2.1422844,1.3724022-3.1464806,2.1757584
			c-0.4351501,0.3347321-0.9707184,0.3347321-1.4728165,0.3012581c-0.2343102,0-0.3347321-0.234314-0.3012581-0.4686241
			c0.0334778-0.20084,0.167366-0.3012581,0.3012581-0.4016762c0.20084-0.1338921,0.4016762-0.234314,0.5355721-0.40168l0,0
			c0.5355721-0.20084,0.9707222-0.5355721,1.4393501-0.8368301C57.5069656,38.0590324,57.8751678,37.8916664,58.1429558,37.6238785z
			"/>
		<path class="st0" d="M46.5612297,36.0171661c-0.4016762,0-0.8033524-0.0334778-1.2050362-0.167366
			c-0.167366-0.0669479-0.3347321-0.1338921-0.3347321-0.3682098c0-0.2343102,0.20084-0.3012543,0.368206-0.3347321
			c0.2677879-0.0669441,0.5355759-0.1004181,0.8033562-0.1338882c2.2761803-0.2008438,4.5188828-0.5020981,6.7615852-0.8033562
			c1.539772-0.2343102,3.0460625-0.5020981,4.5858269-0.8033562c0.167366-0.033474,0.3012581-0.0669441,0.4686241-0.1004181
			c0.1004219,0,0.20084,0.033474,0.2343102,0.1338882c0.0334778,0.1338921-0.033474,0.234314-0.1338882,0.2677879
			c-0.1338921,0.0669441-0.3012581,0.1004219-0.4686241,0.167366c-1.6401863,0.5355721-3.3473206,0.8703041-5.0544548,1.1715622
			c-1.7740822,0.3012581-3.5816307,0.5690422-5.3557129,0.937252C47.0633278,36.0171661,46.7955437,35.983696,46.5612297,36.0171661
			z"/>
		<path class="st0" d="M58.2768517,36.2514801c-0.20084,0.0669479-0.368206,0.2677879-0.60252,0.3012581
			c-0.7029381,0.20084-1.3389282,0.5355721-2.0083923,0.8368301c-1.0376701,0.435154-2.0418663,0.8703041-3.0460625,1.3724022
			c-0.3012543,0.167366-0.6359863,0.167366-0.9707184,0.2008438c-0.167366,0-0.3682098-0.0334778-0.5020981-0.1338921
			c-0.167366-0.0669441-0.3012581-0.20084-0.3012581-0.4016762c0-0.167366,0.167366-0.234314,0.3012581-0.3012581
			c0.5355721-0.2677879,1.0711403-0.5020981,1.6401825-0.7364082c1.5732422-0.6694641,3.1799545-1.1715622,4.7866707-1.7406082
			c1.0041962-0.368206,2.0418663-0.7364082,3.0460625-1.1715622c0.167366-0.0669441,0.368206-0.2343102,0.4686241-0.033474
			c0.1338882,0.20084-0.1338921,0.3012581-0.2677879,0.368206c-0.60252,0.435154-1.2719841,0.769886-1.9414482,1.1046181
			C58.6115837,36.0506401,58.4442177,36.151062,58.2768517,36.2514801z"/>
		<path class="st0" d="M49.7746544,38.0255585c-0.4016762,0-0.7364082,0-1.0376701-0.1338921
			c-0.2343102-0.1004219-0.4686241-0.167366-0.5020981-0.4686241c0-0.20084,0.20084-0.368206,0.5690422-0.4351501
			c1.0711441-0.2008438,2.1422844-0.435154,3.2134323-0.7029419c2.0418663-0.5020981,4.0502586-1.0376701,6.0921211-1.5732384
			c0.3012543-0.0669441,0.6025162-0.1338921,0.9037743-0.20084c0.1004219-0.0334778,0.20084-0.0334778,0.2343102,0.1004181
			c0.0334778,0.1338921-0.033474,0.234314-0.1338882,0.2677879c-0.0669479,0.033474-0.1338921,0.0669441-0.234314,0.1004219
			c-2.6109085,0.8368301-5.188343,1.9079704-7.7992554,2.8117447
			C50.6449623,37.9251404,50.2098083,38.0925064,49.7746544,38.0255585z"/>
		<path class="st0" d="M47.9336281,37.0213623c-0.368206-0.0669479-0.7364082-0.1004219-1.1046143-0.167366
			c-0.167366-0.0334778-0.2677879-0.1004219-0.3012581-0.2677879c0-0.167366,0.1338921-0.2343102,0.2677879-0.2677879
			c0.8703041-0.2343102,1.7740784-0.4016762,2.6443787-0.5690422c2.3096504-0.435154,4.6193047-0.8033562,6.8954811-1.3724022
			c0.60252-0.1338921,1.1715622-0.3347321,1.7740822-0.4686241c0.368206-0.1004219,0.5355721-0.0669441,0.60252,0.1004219
			c0.0669441,0.167366-0.1338921,0.4016762-0.435154,0.5020981c-0.368206,0.1004181-0.7364082,0.20084-1.1046181,0.3012543
			c-2.4100685,0.60252-4.820137,1.1715622-7.2302132,1.7740822c-0.5020981,0.1338921-1.0041962,0.2343102-1.5062943,0.368206
			C48.23489,36.9878922,48.1009941,37.0548363,47.9336281,37.0213623z"/>
	</g>
</g>
</svg>
