<?xml version="1.0" encoding="utf-8"?>
<!-- Generator: Adobe Illustrator 22.0.1, SVG Export Plug-In . SVG Version: 6.00 Build 0)  -->
<svg version="1.1" id="Calque_1" xmlns="http://www.w3.org/2000/svg" xmlns:xlink="http://www.w3.org/1999/xlink" x="0px" y="0px"
	 viewBox="0 0 24.8 24.8" style="enable-background:new 0 0 24.8 24.8;" xml:space="preserve">
<style type="text/css">
	.st0{fill:#48AAB7;}
</style>
<g>
	<path class="st0" d="M24.8,12.4c0-0.8-0.7-1.5-1.5-1.5l-21.9,0c-0.8,0-1.5,0.7-1.5,1.5c0,0.4,0.2,0.8,0.4,1.1
		c0.3,0.3,0.6,0.4,1.1,0.4l21.9,0C24.2,13.9,24.9,13.3,24.8,12.4z"/>
	<g>
		<path class="st0" d="M10.9,9.9h3l0-8.4c0-0.8-0.7-1.5-1.5-1.5c-0.8,0-1.5,0.7-1.5,1.5L10.9,9.9z"/>
		<path class="st0" d="M13.9,14.9h-3l0,8.4c0,0.4,0.2,0.8,0.4,1.1s0.6,0.4,1.1,0.4c0.8,0,1.5-0.7,1.5-1.5L13.9,14.9z"/>
	</g>
</g>
</svg>
